<svg width="18px" height="18px" viewBox="0 0 18 18" role="img" xmlns="http://www.w3.org/2000/svg">
    <title>WhatsApp icon</title>
    <path
        d="M13.104 10.787c-0.223 -0.112 -1.319 -0.65 -1.522 -0.725 -0.205 -0.074 -0.353 -0.111 -0.503 0.112 -0.148 0.223 -0.575 0.724 -0.705 0.873 -0.13 0.149 -0.26 0.167 -0.483 0.056 -0.223 -0.112 -0.941 -0.347 -1.792 -1.106 -0.662 -0.591 -1.11 -1.321 -1.24 -1.544 -0.13 -0.223 -0.013 -0.344 0.098 -0.455 0.101 -0.1 0.223 -0.26 0.335 -0.39s0.149 -0.223 0.223 -0.373c0.074 -0.149 0.038 -0.278 -0.019 -0.39s-0.502 -1.209 -0.687 -1.655c-0.181 -0.434 -0.365 -0.375 -0.502 -0.383a9.75 9.75 0 0 0 -0.427 -0.007c-0.149 0 -0.39 0.055 -0.594 0.279 -0.204 0.223 -0.78 0.762 -0.78 1.859 0 1.097 0.799 2.156 0.91 2.305s1.572 2.4 3.808 3.365c0.532 0.229 0.947 0.367 1.27 0.469 0.534 0.17 1.02 0.146 1.403 0.088 0.428 -0.064 1.319 -0.539 1.504 -1.06s0.186 -0.967 0.13 -1.06c-0.055 -0.093 -0.204 -0.149 -0.427 -0.26m-4.066 5.552h-0.003a7.402 7.402 0 0 1 -3.773 -1.033l-0.271 -0.161 -2.806 0.736 0.748 -2.736 -0.176 -0.28a7.395 7.395 0 0 1 -1.133 -3.945c0.001 -4.088 3.327 -7.413 7.416 -7.413 1.98 0 3.841 0.772 5.241 2.174a7.365 7.365 0 0 1 2.17 5.245c-0.002 4.088 -3.328 7.413 -7.414 7.413m6.31 -13.723A8.865 8.865 0 0 0 9.038 0C4.121 0 0.12 4.001 0.118 8.919c0 1.572 0.41 3.107 1.191 4.459L0.043 18l4.729 -1.24a8.925 8.925 0 0 0 4.262 1.086h0.004c4.915 0 8.918 -4.001 8.92 -8.92a8.865 8.865 0 0 0 -2.61 -6.31"
        fill="#25D366" />
</svg>
