<svg width="24" height="24" viewBox="0 0 24 24" fill="none" xmlns="http://www.w3.org/2000/svg">
    <path
        d="M22.4066 14.059C20.9873 14.1465 19.1214 15.5641 17.3225 16.3791C15.1158 17.3781 11.6826 16.5749 11.6819 16.5749C12.2113 16.3264 14.3644 15.8137 14.7983 15.6235C17.1025 14.6092 16.9063 12.4963 15.8091 12.5135C14.3599 12.5378 13.5079 12.8938 10.6143 13.2883C8.42129 13.5864 5.82804 13.4773 4.58381 13.9524C2.8277 14.6232 0 19.1361 0 19.1361L4.37394 23.3741C4.37394 23.3741 7.0811 20.7077 8.39819 20.7077C11.3997 20.7077 11.5201 20.6672 14.3072 20.516C15.4933 20.4525 15.7407 20.4038 16.418 20.1754C20.0314 18.9538 23.9102 15.7008 23.9816 15.3092C24.1476 14.4029 23.1553 14.0122 22.4066 14.059Z"
        fill="#00B2CA" />
    <path
        d="M16.3587 3.66064H13.3119C13.1191 3.66064 12.9635 3.81685 12.9635 4.00941V6.57002H16.3587V3.66064Z"
        fill="#00B2CA" stroke="black" stroke-width="0.000179161" />
    <path
        d="M17.5683 6.57002H20.9635V4.00941C20.9635 3.81685 20.8079 3.66064 20.6151 3.66064H17.5683V6.57002Z"
        fill="#00B2CA" stroke="black" stroke-width="0.000179161" />
    <path
        d="M13.3119 10.4934H16.3587V7.58398H12.9635V10.1446C12.9635 10.3375 13.1191 10.4934 13.3119 10.4934Z"
        fill="#00B2CA" stroke="black" stroke-width="0.000179161" />
    <path
        d="M17.5683 10.4934H20.6151C20.8079 10.4934 20.9635 10.3375 20.9635 10.1446V7.58398H17.5683V10.4934Z"
        fill="#00B2CA" stroke="black" stroke-width="0.000179161" />
    <path
        d="M13.9495 2.24798C14.1841 2.53111 14.5083 2.77476 14.9022 2.94972C15.2958 3.12465 15.7602 3.23001 16.2727 3.23001C16.5632 3.22973 16.881 3.23229 16.8918 3.23001C16.9032 3.23229 17.2206 3.22973 17.5112 3.23001C17.9016 3.23001 18.2643 3.16895 18.5886 3.06247C19.0756 2.90259 19.4777 2.64189 19.7651 2.32756C19.9082 2.17051 20.0235 1.99982 20.1039 1.81894C20.184 1.63863 20.2297 1.4475 20.2297 1.25437C20.23 1.12574 20.2089 0.99711 20.1663 0.872991C20.1186 0.735261 20.0494 0.609743 19.9633 0.501267C19.8344 0.338237 19.6697 0.212439 19.4871 0.127827C19.3051 0.0434606 19.1048 0 18.9007 0C18.7507 0 18.5991 0.0235849 18.4514 0.0724343C18.2299 0.145149 18.0175 0.275181 17.8383 0.462635C17.6588 0.650055 17.5137 0.893707 17.418 1.18789C17.2934 1.57127 16.9202 2.44051 16.9097 2.46182H16.8742C16.8637 2.44051 16.4903 1.57127 16.3656 1.18789C16.302 0.991651 16.2165 0.818158 16.1131 0.668496C15.9581 0.444159 15.7627 0.274901 15.55 0.163835C15.3373 0.0531185 15.1078 0 14.8835 0C14.6115 0 14.3453 0.0775432 14.1204 0.225771C14.0083 0.3002 13.9063 0.392475 13.8208 0.501232C13.7345 0.609708 13.6652 0.735226 13.6172 0.872956C13.5744 0.997075 13.5542 1.12599 13.5544 1.25434C13.5544 1.38297 13.5743 1.51104 13.6115 1.63516C13.6772 1.85267 13.7936 2.05944 13.9495 2.24798ZM17.9848 1.37247C18.0325 1.22648 18.093 1.10667 18.1615 1.00757C18.264 0.859624 18.3835 0.758811 18.5097 0.69264C18.636 0.62675 18.7698 0.596656 18.9007 0.596061C19.0591 0.596061 19.2119 0.642076 19.3343 0.723574C19.3962 0.763885 19.4502 0.813294 19.495 0.870402C19.5405 0.928069 19.5769 0.993365 19.603 1.06835C19.6231 1.12658 19.6333 1.18789 19.6333 1.25381C19.6333 1.31967 19.6231 1.39011 19.601 1.46394C19.5623 1.59289 19.4871 1.73202 19.3746 1.86776C19.2068 2.07138 18.956 2.26419 18.64 2.40447C18.3231 2.54475 17.9419 2.63336 17.5112 2.63336C17.4882 2.63336 17.4657 2.63308 17.4439 2.63252C17.6006 2.36983 17.79 1.97224 17.9848 1.37247ZM14.181 1.0686V1.06832C14.2068 0.993365 14.2434 0.928034 14.2889 0.870367C14.3564 0.784635 14.4445 0.71647 14.5467 0.6693C14.6487 0.621886 14.7645 0.596026 14.8835 0.596026C14.9704 0.596026 15.0593 0.609673 15.1459 0.638367C15.2759 0.681233 15.4015 0.757341 15.5148 0.875196C15.6269 0.992491 15.7278 1.15377 15.799 1.37244C15.9936 1.97221 16.1833 2.36979 16.3397 2.63245C16.3181 2.63301 16.2957 2.63329 16.2727 2.63329C15.9444 2.63329 15.6448 2.58216 15.3807 2.49556C14.9849 2.36605 14.6688 2.1556 14.4592 1.9256C14.3542 1.81058 14.2758 1.69132 14.225 1.57686C14.1738 1.46156 14.1503 1.35249 14.1503 1.25423C14.1503 1.18789 14.1605 1.12683 14.181 1.0686Z"
        fill="#00B2CA" stroke="black" stroke-width="0.000179161" />
</svg>
