<svg width="36" height="36" viewBox="0 0 36 36" fill="none" xmlns="http://www.w3.org/2000/svg">
    <rect width="36.0004" height="36" rx="18" fill="#FEF2E1" />
    <path
        d="M17.9999 28.7997C23.9645 28.7997 28.7997 23.9645 28.7997 17.9999C28.7997 12.0354 23.9645 7.2002 17.9999 7.2002C12.0354 7.2002 7.2002 12.0354 7.2002 17.9999C7.2002 23.9645 12.0354 28.7997 17.9999 28.7997Z"
        fill="#BF7B18" />
    <path
        d="M17.9998 28.8001C12.0446 28.8001 7.19971 23.9551 7.19971 17.9999C7.19971 12.0448 12.0446 7.2002 17.9998 7.2002C23.955 7.2002 28.7999 12.0448 28.7999 17.9999C28.7999 23.9551 23.9546 28.8001 17.9998 28.8001Z"
        fill="white" />
    <path
        d="M23.4725 10.3928C23.9336 10.3928 24.3893 10.4165 24.8388 10.4596C23.0298 8.81759 20.6298 7.81543 18 7.81543C12.3841 7.81543 7.81494 12.3842 7.81494 18.0005C7.81494 20.0048 8.39951 21.8745 9.40347 23.4519C9.94279 16.1502 16.033 10.3928 23.4725 10.3928Z"
        fill="#F6D555" />
    <path
        d="M17.9995 28.1852C23.6153 28.1852 28.1845 23.6164 28.1845 18.0002C28.1845 15.0142 26.8925 12.3244 24.8387 10.4594C24.3891 10.4163 23.9334 10.3926 23.4724 10.3926C16.0332 10.3926 9.94264 16.1503 9.40332 23.4516C11.212 26.2944 14.3883 28.1852 17.9995 28.1852Z"
        fill="#EFB217" />
    <path
        d="M18.0002 26.0561C22.4491 26.0561 26.0556 22.4496 26.0556 18.0007C26.0556 13.5518 22.4491 9.94531 18.0002 9.94531C13.5513 9.94531 9.94482 13.5518 9.94482 18.0007C9.94482 22.4496 13.5513 26.0561 18.0002 26.0561Z"
        fill="#D79511" />
    <path
        d="M16.5021 16.4257L13.1538 16.9126L15.5768 19.2742L15.0048 22.6093L17.9998 21.0348V13.3916L16.5021 16.4257Z"
        fill="#F6D555" />
    <path
        d="M22.846 16.9126L19.4973 16.4257L18 13.3916V21.0348L20.995 22.6093L20.423 19.2742L22.846 16.9126Z"
        fill="#EFB217" />
</svg>
