<svg width="20" height="22" viewBox="0 0 20 22" fill="none" xmlns="http://www.w3.org/2000/svg">
    <path fill-rule="evenodd" clip-rule="evenodd" d="M9.4453 0.16795C9.7812 -0.0559832 10.2188 -0.0559832 10.5547 0.16795L19.5547 6.16795C19.8329 6.35342 20 6.66565 20 7C20 13.6018 17.639 17.3889 15.1485 19.5106C13.9202 20.557 12.6908 21.1725 11.7638 21.5274C11.2997 21.7051 10.909 21.8184 10.6282 21.8883C10.4877 21.9233 10.3743 21.9474 10.2927 21.9634C10.2519 21.9714 10.2189 21.9773 10.1944 21.9815L10.164 21.9865L10.1537 21.9881L10.1498 21.9887L10.1482 21.989C10.1482 21.989 10.1467 21.9892 10 21C9.85327 21.9892 9.85184 21.989 9.85184 21.989L9.85019 21.9887L9.84628 21.9881L9.83597 21.9865L9.8056 21.9815C9.7811 21.9773 9.74814 21.9714 9.7073 21.9634C9.62565 21.9474 9.51231 21.9233 9.3718 21.8883C9.09101 21.8184 8.70025 21.7051 8.23619 21.5274C7.30916 21.1725 6.07978 20.557 4.85149 19.5106C2.36104 17.3889 0 13.6018 0 7C0 6.66565 0.167101 6.35342 0.4453 6.16795L9.4453 0.16795ZM10 21L10.1467 21.9892C10.0494 22.0036 9.95056 22.0036 9.85327 21.9892L10 21ZM14.669 8.25671C15.0795 8.62617 15.1128 9.25846 14.7433 9.66897L10.2433 14.669C10.0452 14.8891 9.75971 15.0101 9.46374 14.9993C9.16777 14.9886 8.8918 14.8472 8.71017 14.6133L6.21017 11.3933C5.87147 10.9571 5.95054 10.3289 6.38678 9.99016C6.82302 9.65146 7.45123 9.73054 7.78992 10.1668L9.55664 12.4423L13.2568 8.33104C13.6262 7.92053 14.2585 7.88726 14.669 8.25671Z" fill="#00B2CA"/>
</svg>
