<svg width="20" height="22" viewBox="0 0 20 22" fill="none" xmlns="http://www.w3.org/2000/svg">
    <path fill-rule="evenodd" clip-rule="evenodd" d="M9.4453 0.16795C9.7812 -0.0559832 10.2188 -0.0559832 10.5547 0.16795L19.5547 6.16795C19.8329 6.35342 20 6.66565 20 7C20 13.6018 17.639 17.3889 15.1485 19.5106C13.9202 20.557 12.6908 21.1725 11.7638 21.5274C11.2997 21.7051 10.909 21.8184 10.6282 21.8883C10.4877 21.9233 10.3743 21.9474 10.2927 21.9634C10.2519 21.9714 10.2189 21.9773 10.1944 21.9815L10.164 21.9865L10.1537 21.9881L10.1498 21.9887L10.1482 21.989C10.1482 21.989 10.1467 21.9892 10 21C9.85327 21.9892 9.85184 21.989 9.85184 21.989L9.85019 21.9887L9.84628 21.9881L9.83597 21.9865L9.8056 21.9815C9.7811 21.9773 9.74814 21.9714 9.7073 21.9634C9.62565 21.9474 9.51231 21.9233 9.3718 21.8883C9.09101 21.8184 8.70025 21.7051 8.23619 21.5274C7.30916 21.1725 6.07978 20.557 4.85149 19.5106C2.36104 17.3889 0 13.6018 0 7C0 6.66565 0.167101 6.35342 0.4453 6.16795L9.4453 0.16795ZM10 21L10.1467 21.9892C10.0494 22.0036 9.95056 22.0036 9.85327 21.9892L10 21ZM6.29289 7.29289C6.68342 6.90237 7.31658 6.90237 7.70711 7.29289L10 9.58579L12.2929 7.29289C12.6834 6.90237 13.3166 6.90237 13.7071 7.29289C14.0976 7.68342 14.0976 8.31658 13.7071 8.70711L11.4142 11L13.7071 13.2929C14.0976 13.6834 14.0976 14.3166 13.7071 14.7071C13.3166 15.0976 12.6834 15.0976 12.2929 14.7071L10 12.4142L7.70711 14.7071C7.31658 15.0976 6.68342 15.0976 6.29289 14.7071C5.90237 14.3166 5.90237 13.6834 6.29289 13.2929L8.58579 11L6.29289 8.70711C5.90237 8.31658 5.90237 7.68342 6.29289 7.29289Z" fill="#EA0707"/>
</svg>
