<svg width="100" height="100" viewBox="0 0 100 100" fill="none" xmlns="http://www.w3.org/2000/svg">
    <path
        d="M28.5713 74.9999C27.8982 74.9997 27.2388 74.8518 26.6692 74.5731C26.0996 74.2945 25.6428 73.8964 25.3516 73.4248C25.0604 72.9532 24.9466 72.4273 25.0232 71.9077C25.0999 71.388 25.3639 70.8957 25.7849 70.4876L32.1351 64.3404C32.732 63.7758 33.5912 63.4167 34.5265 63.3411C35.4618 63.2655 36.3978 63.4793 37.1315 63.9363C37.8653 64.3933 38.3376 65.0567 38.4463 65.7825C38.5549 66.5084 38.291 67.2382 37.7118 67.8139L31.3622 73.9605C31.0274 74.2855 30.6027 74.5476 30.1196 74.7275C29.6366 74.9075 29.1069 75.0006 28.5713 74.9999Z"
        fill="#00B2CA" fill-opacity="0.33" />
    <path
        d="M54.399 55.273C52.2907 55.2721 50.2165 54.8589 48.3676 54.0714C46.5188 53.2839 44.9547 52.1475 43.8195 50.7668C42.6843 49.3862 42.0145 47.8057 41.8718 46.1711C41.7291 44.5364 42.1182 42.9002 43.0031 41.413C43.888 39.9259 45.2403 38.6358 46.9355 37.6616C48.6306 36.6873 50.614 36.0602 52.7029 35.8381C54.7918 35.6161 56.919 35.8061 58.8886 36.3908C60.8582 36.9754 62.6067 37.9359 63.9731 39.1836C64.4196 39.5905 64.6474 40.1153 64.6091 40.6492C64.5708 41.1831 64.2695 41.6851 63.7675 42.0509L58.801 45.6733C58.5446 45.8606 58.2433 46.0069 57.9142 46.1037C57.585 46.2005 57.2346 46.2461 56.8829 46.2376C56.5312 46.2292 56.185 46.1671 55.8642 46.0547C55.5434 45.9423 55.2542 45.7819 55.0131 45.5827C54.7721 45.3835 54.5839 45.1493 54.4593 44.8936C54.3347 44.6378 54.2761 44.3655 54.2869 44.0922C54.2978 43.8188 54.3778 43.5498 54.5224 43.3005C54.667 43.0512 54.8734 42.8265 55.1297 42.6392L57.9023 40.6162C56.7089 40.1009 55.3517 39.8597 53.9887 39.9207C52.6257 39.9817 51.3131 40.3424 50.2037 40.9607C49.0943 41.579 48.2338 42.4296 47.7225 43.4133C47.2112 44.397 47.07 45.4734 47.3155 46.517C47.561 47.5606 48.183 48.5286 49.1091 49.3081C50.0352 50.0876 51.2272 50.6466 52.5463 50.92C53.8655 51.1934 55.2574 51.1699 56.56 50.8522C57.8626 50.5346 59.0223 49.9358 59.9039 49.1258C60.1313 48.9171 60.4094 48.7452 60.7222 48.6199C61.0351 48.4947 61.3767 48.4186 61.7274 48.3959C62.0781 48.3733 62.4311 48.4045 62.7663 48.4879C63.1015 48.5713 63.4123 48.7051 63.6809 48.8818C63.9495 49.0585 64.1707 49.2746 64.3319 49.5177C64.493 49.7609 64.591 50.0263 64.6201 50.2988C64.6493 50.5714 64.6091 50.8457 64.5018 51.1062C64.3945 51.3667 64.2222 51.6082 63.9949 51.8169C62.8147 52.9008 61.3445 53.7717 59.6867 54.3686C58.0289 54.9655 56.2235 55.2741 54.3964 55.273H54.399Z"
        fill="#FA6E53" fill-opacity="0.33" />
    <path
        d="M54.1096 65.8193C49.7021 65.817 45.3662 64.9528 41.5014 63.3063C37.6366 61.6597 34.3671 59.2838 31.9943 56.3975C29.6214 53.5112 28.2215 50.2072 27.9234 46.7899C27.6253 43.3727 28.4387 39.9521 30.2886 36.8434C32.1386 33.7346 34.9655 31.0376 38.509 29.0008C42.0525 26.9641 46.1987 25.653 50.5655 25.1886C54.9323 24.7241 59.3793 25.121 63.4968 26.3429C67.6143 27.5648 71.2699 29.5723 74.1268 32.1804C74.7411 32.7415 75.0434 33.4693 74.9672 34.2036C74.891 34.9379 74.4426 35.6186 73.7206 36.096C72.9985 36.5734 72.062 36.8083 71.1171 36.7491C70.1721 36.6899 69.2962 36.3414 68.6819 35.7803C66.1452 33.4627 62.7541 31.8061 58.9668 31.0343C55.1795 30.2626 51.1787 30.4129 47.5049 31.4649C43.8311 32.517 40.6615 34.4201 38.4243 36.9171C36.1872 39.4141 34.9903 42.3846 34.9956 45.4271C35.0008 48.4697 36.2078 51.4377 38.4535 53.93C40.6992 56.4224 43.8753 58.3189 47.5527 59.3634C51.2301 60.4078 55.2315 60.5499 59.016 59.7703C62.8006 58.9907 66.1861 57.327 68.7148 55.0042C69.3293 54.448 70.2019 54.1032 71.1423 54.0449C72.0826 53.9867 73.0145 54.2197 73.7347 54.6932C74.4548 55.1668 74.9048 55.8423 74.9865 56.5727C75.0683 57.303 74.7751 58.0288 74.1709 58.5918C71.7042 60.8578 68.631 62.6784 65.1657 63.9264C61.7003 65.1744 57.9263 65.8199 54.1069 65.8178L54.1096 65.8193Z"
        fill="#00B2CA" fill-opacity="0.33" />
</svg>
