<svg xmlns="http://www.w3.org/2000/svg" width="338.997" height="221.216" viewBox="0 0 338.997 221.216">
    <defs>
        <linearGradient id="linear-gradient" y1="0.499" x2="1" y2="0.499"
            gradientUnits="objectBoundingBox">
            <stop offset="0" stop-color="#d3d6db" />
            <stop offset="1" stop-color="#7a869b" />
        </linearGradient>
    </defs>
    <g id="onbo_a" transform="translate(0 0)">
        <path id="shad"
            d="M5.75,105.02C-10.18,17.8,65.98-9.25,100.17,2.66c14.73,5.13,11.49,21.79,27.51,36.37C173.45,80.66,261.21.54,310.18,36.9c24.16,17.94,36.15,62.22,24.05,89.26C297.91,207.3,19.69,181.36,5.75,105.02Z"
            fill="#f6f5fa" />
        <path id="shad-2" data-name="shad"
            d="M15.21,207.59C9.44,208.26.06,209.5,0,211.29c-.05,1.61,7.5,2.93,10.14,3.39,30.23,5.28,36.79-3.57,76.78.25,20.98,2,17.81,5.32,36.41,6.16,25.45,1.14,64.24-5.8,96.06-5.48,13.57.13,13.79,1.26,32.26,2.16,7.26.35,58.09,2.77,59-.92.16-.67-1.06-2.53-23.05-7.08,0,0-104.95-21.74-272.4-2.16"
            opacity="0.3" fill="url(#linear-gradient)" />
        <g id="phone">
            <path id="Path_29948" data-name="Path 29948"
                d="M216.5,17.17V194.18a14.266,14.266,0,0,1-1.08,5.44,14.215,14.215,0,0,1-13.14,8.78H128.79a14.2,14.2,0,0,1-10.05-4.16,14.2,14.2,0,0,1-4.17-10.06V17.17A14.22,14.22,0,0,1,128.79,2.95h73.49A14.2,14.2,0,0,1,216.5,17.17Z"
                fill="#510394" />
            <path id="Path_29949" data-name="Path 29949"
                d="M199.93,8.5h-69.8a9.732,9.732,0,0,0-9.74,9.74V191.59a9.732,9.732,0,0,0,9.74,9.74h69.8a9.732,9.732,0,0,0,9.74-9.74V18.25a9.732,9.732,0,0,0-9.74-9.74Z"
                fill="#fff" />
            <path id="Path_29950" data-name="Path 29950"
                d="M136.34,16.29h-8.85a1.469,1.469,0,0,1-1.03-.42,1.452,1.452,0,0,1-.42-1.03,1.469,1.469,0,0,1,.42-1.03,1.452,1.452,0,0,1,1.03-.42h8.85a1.451,1.451,0,0,1,1.46,1.45,1.437,1.437,0,0,1-.43,1.03A1.452,1.452,0,0,1,136.34,16.29Z"
                fill="#510394" />
            <path id="Path_29951" data-name="Path 29951"
                d="M194.77,16.29h-.39a1.446,1.446,0,0,1-1.02-.42,1.461,1.461,0,0,1-.43-1.03,1.451,1.451,0,0,1,1.45-1.45h.39a1.446,1.446,0,0,1,1.02.42,1.461,1.461,0,0,1,.43,1.03,1.451,1.451,0,0,1-1.45,1.45Z"
                fill="#510394" />
            <path id="Path_29952" data-name="Path 29952"
                d="M203.23,16.29h-3.88a1.451,1.451,0,0,1-1.46-1.45,1.437,1.437,0,0,1,.43-1.03,1.452,1.452,0,0,1,1.03-.42h3.88a1.469,1.469,0,0,1,1.03.42,1.452,1.452,0,0,1,.42,1.03,1.469,1.469,0,0,1-.42,1.03A1.452,1.452,0,0,1,203.23,16.29Z"
                fill="#510394" />
            <path id="Path_29953" data-name="Path 29953"
                d="M168,14.84a2.473,2.473,0,0,1-.41,1.37,2.508,2.508,0,0,1-1.1.91,2.466,2.466,0,0,1-2.68-.53,2.423,2.423,0,0,1-.67-1.26,2.463,2.463,0,1,1,4.88-.47Z"
                fill="#510394" />
        </g>
        <g id="tree">
            <path id="Path_29954" data-name="Path 29954"
                d="M252.09,207.69H229.08a1.521,1.521,0,0,1-1.01-.39,1.494,1.494,0,0,1-.49-.96l-3.63-31.93h33.27l-3.63,31.93a1.506,1.506,0,0,1-.5.96,1.552,1.552,0,0,1-1.01.39Z"
                fill="#00b2ca" />
            <path id="Path_29955" data-name="Path 29955"
                d="M257.22,174.79c0,1.04-7.45,1.89-16.64,1.89s-16.64-.85-16.64-1.89,7.45-1.89,16.64-1.89S257.22,173.75,257.22,174.79Z"
                fill="#1c2b6b" />
            <path id="Path_29956" data-name="Path 29956"
                d="M239.07,113.16c-9.07.76-6.05,27.98-6.05,27.98,2.27,23.44,5.29,34.03,7.56,34.79s6.81-33.27,6.81-41.59c0,0,.76-21.93-8.32-21.17"
                fill="#1e3286" />
            <path id="Path_29957" data-name="Path 29957"
                d="M240.2,172.14a.453.453,0,0,1-.16-.03.381.381,0,0,1-.13-.09.392.392,0,0,1-.08-.14.292.292,0,0,1-.01-.16c2.98-24.62-.72-55.56-.76-55.87a.43.43,0,0,1,.08-.27.394.394,0,0,1,.25-.14.358.358,0,0,1,.27.07.412.412,0,0,1,.15.24c.04.31,3.75,31.33.76,56.05a.37.37,0,0,1-.12.24.384.384,0,0,1-.25.09Z"
                fill="#fff" />
            <path id="Path_29958" data-name="Path 29958"
                d="M211.85,100.31c-.76,3.78,3.78,4.54,4.54,9.83s-1.51,6.81-.76,9.83,5.29,3.78,6.05,11.34-2.27,6.81-1.51,11.34,5.29,4.54,6.05,8.32.76,9.07,2.27,13.61,6.05,11.34,8.32,11.34,8.32-12.85,6.81-16.64-3.78-4.54-3.78-7.56,3.03-10.59,2.27-15.88-7.56-7.56-8.32-11.34,1.51-13.61-3.78-18.15-17.39-9.83-18.15-6.05"
                fill="#fa6e53" />
            <path id="Path_29959" data-name="Path 29959"
                d="M283.69,108.63c2.67,2.67-6.05,3.78-6.81,9.07s-.76,7.56-3.78,10.59-7.56,3.78-6.81,8.32,2.27,9.07,0,11.34-7.56,2.27-9.07,6.05-.76,8.32-3.78,12.1-7.56,11.34-11.34,9.83-1.51-18.9,0-21.93,3.02-5.29,3.02-7.56-.76-6.05.76-9.83,9.83-5.29,10.59-7.56,1.51-14.37,6.05-17.39,16.64-7.56,21.17-3.03"
                fill="#40cd8a" />
            <path id="Path_29960" data-name="Path 29960"
                d="M243.27,174.62a.414.414,0,0,1-.19-.05.316.316,0,0,1-.14-.14.386.386,0,0,1,0-.38c.03-.05,3.06-5.11,3.7-7.67.16-.66.36-1.66.59-2.81.84-4.2,2.1-10.54,4.04-12.49,2.82-2.82,7.33-11.46,10.49-22.52,3.89-13.62,16.76-17.61,16.89-17.65a.382.382,0,0,1,.28.03.389.389,0,0,1,.18.22.343.343,0,0,1-.03.28.359.359,0,0,1-.22.18c-.13.04-12.6,3.92-16.38,17.13-3.2,11.18-7.79,19.96-10.68,22.85-1.78,1.78-3.07,8.24-3.83,12.1-.23,1.17-.43,2.17-.6,2.85-.67,2.67-3.66,7.67-3.79,7.88a.3.3,0,0,1-.14.13.414.414,0,0,1-.19.05"
                fill="#fff" />
            <path id="Path_29961" data-name="Path 29961"
                d="M236.76,172.97a.376.376,0,0,1-.38-.38c0-.1-.07-9.92-2.94-12.8-2.92-2.92-4.59-11.86-5.4-28.98-.74-15.56-11.89-28.38-12-28.5a.344.344,0,0,1-.09-.27.347.347,0,0,1,.13-.26.332.332,0,0,1,.27-.09.373.373,0,0,1,.26.12c.12.13,11.44,13.14,12.19,28.97.8,16.69,2.44,25.74,5.18,28.49,3.1,3.1,3.16,12.92,3.17,13.34a.319.319,0,0,1-.03.14.36.36,0,0,1-.08.12.419.419,0,0,1-.12.08.4.4,0,0,1-.15.03h0Z"
                fill="#fff" />
        </g>
        <g id="women">
            <g id="leg">
                <path id="Path_29962" data-name="Path 29962"
                    d="M53.56,203.94c-.32.45-1.04,5.09-1.4,6.98a.183.183,0,0,1-.08.13.252.252,0,0,1-.16.05.19.19,0,0,1-.15-.08.2.2,0,0,1-.06-.15l.23-6.73c0-.24-.67-.37-.78.3s-4.4,6.4-5.64,6.54-8.94,2.99-8.21,1.21c.54-1.32,2.13-4.26,2.91-5.7,0,.02.02.04.03.06a.274.274,0,0,0,.13.13.337.337,0,0,0,.17.05.17.17,0,0,0,.07-.01c.28-.05,6.75-1.44,9.01-4.17.47-.57.92-1.07,1.35-1.56,1.39-1.56,2.44-2.75,2.44-4.24,1.53,2.51.67,6.48.14,7.19Z"
                    fill="#00b2ca" />
                <path id="Path_29963" data-name="Path 29963"
                    d="M65.46,158.14c-.34,4.15-6.63,22.95-9.23,27.55-2.63,4.66-3.85,8.09-3.62,10.21.01.12.03.24.05.35.29,1.46-.71,2.58-2.21,4.27-.42.47-.89,1-1.37,1.58-1.66,2.01-6.08,3.3-7.85,3.75.25-.47.61-1.15,1.05-1.96,1.31-2.47,3.24-6.1,4.37-8.24,1.79-3.35,3.57-11.78,5.1-19.41,1.19-5.93,6.7-17.6,7.33-18.92,1.31-.54,4.58-1.59,5.85-.68a1.47,1.47,0,0,1,.47.68,1.527,1.527,0,0,1,.06.82Z"
                    fill="#fff" />
                <path id="Path_29964" data-name="Path 29964"
                    d="M66.05,157.01a2.27,2.27,0,0,0-.7-.95c-1.91-1.37-6.48.58-6.67.66a.424.424,0,0,0-.18.17c-.25.52-6.17,12.86-7.44,19.2-1.1,5.48-3.14,15.68-5.03,19.22-1.85,3.48-5.79,10.9-5.79,10.9a.254.254,0,0,0-.04.17.2.2,0,0,0,.02.11c0,.02.02.04.03.06a.274.274,0,0,0,.13.13.337.337,0,0,0,.17.05.17.17,0,0,0,.07-.01c.28-.05,6.75-1.44,9.01-4.17.47-.57.92-1.07,1.35-1.56,1.39-1.56,2.44-2.75,2.44-4.24a3.548,3.548,0,0,0-.06-.64c-.37-1.88.83-5.37,3.49-10.07,2.61-4.64,8.97-23.64,9.31-27.84a2.2,2.2,0,0,0-.11-1.19Zm-15.6,43.51c-.42.47-.89,1-1.37,1.58-1.66,2.01-6.08,3.3-7.85,3.75.25-.47.61-1.15,1.05-1.96,1.31-2.47,3.24-6.1,4.37-8.24,1.79-3.35,3.57-11.78,5.1-19.41,1.19-5.93,6.7-17.6,7.33-18.92,1.31-.54,4.58-1.59,5.85-.68a1.47,1.47,0,0,1,.47.68,1.527,1.527,0,0,1,.06.82c-.34,4.15-6.63,22.95-9.23,27.55-2.63,4.66-3.85,8.09-3.62,10.21.01.12.03.24.05.35.29,1.46-.71,2.58-2.21,4.27Z"
                    fill="#510394" />
            </g>
            <g id="leg-2" data-name="leg">
                <path id="Path_29965" data-name="Path 29965"
                    d="M90.98,213.9c-2.72.07-4.81-8.58-4.91-10.27a.612.612,0,0,0,.05.12c.37.74,3.68,2.44,4.68,2.94a.414.414,0,0,0,.16.03.215.215,0,0,0,.15-.04c.36-.16,3.27-1.56,3.74-3.01.18,2.63-1.14,10.16-3.87,10.23Z"
                    fill="#00b2ca" />
                <path id="Path_29966" data-name="Path 29966"
                    d="M94.19,203.33c-.07.83-1.96,2.03-3.24,2.65a20.212,20.212,0,0,1-4.2-2.55c-.01-.13-.01-.26-.01-.39a11.086,11.086,0,0,1,.29-2.75c.17-1.06.35-2.27.45-3.39.2-2.42-1.24-7.27-2.29-10.82-.19-.63-.36-1.21-.5-1.71-.68-2.39-.33-9-.12-12.96.07-1.33.13-2.38.13-2.93a64.688,64.688,0,0,0-1.21-8.19l8.22-1.68c-.11,1.37-.42,5.45-.42,8.48a44.284,44.284,0,0,0,.59,5.75,46.191,46.191,0,0,1,.69,8.3c-.21,4.08-.24,11.03-.24,14.8a16.716,16.716,0,0,0,.96,3.82,14.121,14.121,0,0,1,.8,2.84c.04.24.07.49.1.73Z"
                    fill="#fff" />
                <path id="Path_29967" data-name="Path 29967"
                    d="M93.98,199.54a16.552,16.552,0,0,1-.92-3.6c0-3.76.03-10.7.23-14.76a45.859,45.859,0,0,0-.69-8.44,42.95,42.95,0,0,1-.59-5.65c0-3.65.46-8.84.46-8.89a.285.285,0,0,0-.02-.16.339.339,0,0,0-.09-.14.53.53,0,0,0-.15-.08.43.43,0,0,0-.16,0l-9.04,1.85a.612.612,0,0,0-.13.06.385.385,0,0,0-.09.09.235.235,0,0,0-.05.13.33.33,0,0,0,0,.14A71.949,71.949,0,0,1,84,168.48c0,.53-.05,1.58-.12,2.9-.23,4.25-.58,10.69.14,13.19.14.5.31,1.08.5,1.72.97,3.29,2.45,8.27,2.26,10.55-.09,1.1-.28,2.29-.44,3.34a9.791,9.791,0,0,0-.27,3.45.612.612,0,0,0,.05.12c.37.74,3.68,2.44,4.68,2.94a.414.414,0,0,0,.16.03.215.215,0,0,0,.15-.04c.36-.16,3.27-1.56,3.74-3.01h0a1.666,1.666,0,0,0,.06-.29,13.479,13.479,0,0,0-.93-3.84Zm-6.95.75c.17-1.06.35-2.27.45-3.39.2-2.42-1.24-7.27-2.29-10.82-.19-.63-.36-1.21-.5-1.71-.68-2.39-.33-9-.12-12.96.07-1.33.13-2.38.13-2.93a64.688,64.688,0,0,0-1.21-8.19l8.22-1.68c-.11,1.37-.42,5.45-.42,8.48a44.284,44.284,0,0,0,.59,5.75,46.191,46.191,0,0,1,.69,8.3c-.21,4.08-.24,11.03-.24,14.8a16.716,16.716,0,0,0,.96,3.82,14.121,14.121,0,0,1,.8,2.84c.04.24.07.49.1.73-.07.83-1.96,2.03-3.24,2.65a20.212,20.212,0,0,1-4.2-2.55c-.01-.13-.01-.26-.01-.39a11.086,11.086,0,0,1,.29-2.75Z"
                    fill="#510394" />
            </g>
            <g id="hand">
                <path id="Path_29968" data-name="Path 29968"
                    d="M130.45,47.98a.97.97,0,0,1,0,.34l-1.73,8.25-.79,3.77-.61,2.89a.982.982,0,0,1-.13.32,1.044,1.044,0,0,1-.24.23.67.67,0,0,1-.21.1h-.01a.378.378,0,0,0-.08-.05l-3.19-.66a8.9,8.9,0,0,0-1.09-3.49V54.7a.352.352,0,0,0-.09-.23.4.4,0,0,0-.21-.12.507.507,0,0,0-.24.04.4.4,0,0,0-.15.19c-.08.22-1.89,5.26-2.06,7.74a.549.549,0,0,1-.07-.09.836.836,0,0,1-.12-.31.653.653,0,0,1,0-.34l3.12-14.91a1.008,1.008,0,0,1,.14-.32.9.9,0,0,1,.56-.36.915.915,0,0,1,.33,0l6.19,1.3a1.008,1.008,0,0,1,.32.14.916.916,0,0,1,.36.55Z"
                    fill="#fff" />
                <path id="Path_29969" data-name="Path 29969"
                    d="M131.24,57.26a.311.311,0,0,0-.16-.14l-1.61-.69,1.67-7.95a1.84,1.84,0,0,0,.01-.62,1.509,1.509,0,0,0-.24-.57,1.635,1.635,0,0,0-.43-.44,1.466,1.466,0,0,0-.56-.24l-6.19-1.3a1.617,1.617,0,0,0-.62-.01,1.668,1.668,0,0,0-.57.23,1.8,1.8,0,0,0-.44.43,1.509,1.509,0,0,0-.24.57l-3.12,14.91a1.4,1.4,0,0,0-.01.61,1.591,1.591,0,0,0,.23.57,1.391,1.391,0,0,0,.43.44.746.746,0,0,0,.12.07,36.2,36.2,0,0,1-2.39,6.68.366.366,0,0,0-.02.23.389.389,0,0,0,.13.2l4.88,3.68a.439.439,0,0,0,.22.07.381.381,0,0,0,.34-.27c.54-2.17,3.42-7.83,4.08-9.11a1.6,1.6,0,0,0,.71-.33,1.528,1.528,0,0,0,.55-.9l.55-2.63,1.36-.08a.272.272,0,0,0,.17-.06.3.3,0,0,0,.13-.14.4.4,0,0,0,.03-.19.363.363,0,0,0-.07-.17l-.57-.77.7.09a.325.325,0,0,0,.22-.04.353.353,0,0,0,.15-.17.336.336,0,0,0,.02-.22.347.347,0,0,0-.12-.19l-.76-.63,1.23-.4a.3.3,0,0,0,.17-.12.386.386,0,0,0,.08-.2.361.361,0,0,0-.06-.2Zm-5.26,7.3a77.017,77.017,0,0,0-3.85,8.48l-4.24-3.2a36.012,36.012,0,0,0,2.31-6.49,6.542,6.542,0,0,0,.1-.7,1.355,1.355,0,0,0,.02-.2,28.9,28.9,0,0,1,1.34-5.58v2.9a.329.329,0,0,0,.04.17,7.848,7.848,0,0,1,1.02,3.22c.01.09.01.18.02.27a.356.356,0,0,0,.07.24.332.332,0,0,0,.21.13l3.02.64-.06.12Zm1.95-4.22-.61,2.89a.982.982,0,0,1-.13.32,1.044,1.044,0,0,1-.24.23.67.67,0,0,1-.21.1h-.01a.378.378,0,0,0-.08-.05l-3.19-.66a8.9,8.9,0,0,0-1.09-3.49V54.7a.352.352,0,0,0-.09-.23.4.4,0,0,0-.21-.12.507.507,0,0,0-.24.04.4.4,0,0,0-.15.19c-.08.22-1.89,5.26-2.06,7.74a.549.549,0,0,1-.07-.09.836.836,0,0,1-.12-.31.653.653,0,0,1,0-.34l3.12-14.91a1.008,1.008,0,0,1,.14-.32.9.9,0,0,1,.56-.36.915.915,0,0,1,.33,0l6.19,1.3a1.008,1.008,0,0,1,.32.14.916.916,0,0,1,.36.55.97.97,0,0,1,0,.34l-1.73,8.25-.79,3.77Zm1.24-1.77-.15-.02.02-.08.13.1Zm-.45,1.46.11-.55.39.52Zm.5-2.4.1-.5.62.27Z"
                    fill="#510394" />
                <path id="Path_29970" data-name="Path 29970"
                    d="M126.04,64.44a79.248,79.248,0,0,0-3.91,8.6l-4.24-3.2c.49-1.07,2.19-4.98,2.41-7.19a1.355,1.355,0,0,0,.02-.2,28.9,28.9,0,0,1,1.34-5.58v2.9a.329.329,0,0,0,.04.17,7.848,7.848,0,0,1,1.02,3.22c.01.09.01.18.02.27a.356.356,0,0,0,.07.24.332.332,0,0,0,.21.13l3.02.64Z"
                    fill="#fff" />
                <path id="Path_29971" data-name="Path 29971"
                    d="M127.65,48.81h-.08l-2.78-.64a.612.612,0,0,1-.13-.06.474.474,0,0,1-.1-.1.364.364,0,0,1-.04-.27.356.356,0,0,1,.16-.22.323.323,0,0,1,.27-.04l2.78.64a.345.345,0,0,1,.21.14.361.361,0,0,1,.06.25.31.31,0,0,1-.12.23.358.358,0,0,1-.24.09"
                    fill="#510394" />
            </g>
            <g id="body">
                <path id="Path_29972" data-name="Path 29972"
                    d="M61.55,104.86c-.42,7.18-2.09,33.8-4.74,41.04s-5.43,11.43-2.65,13.24,14.49.14,18.81,1.39,12.26,4.04,22.43,0,11.98-2.39,9.06-15.76a358.466,358.466,0,0,1-7.83-49.19c-2.05-22.34-1.14-35.34-8.89-37.62s-13.68-1.63-16.42,1.92-9.78,44.97-9.78,44.97"
                    fill="#3a3e3f" />
                <path id="Path_29973" data-name="Path 29973"
                    d="M81.23,53.39c1.78.79,7.17.83,8.13,1.99s6.02,1.41,7.62,3.27,11.41,20.15,11.47,21.01,6.59-11.15,7.82-11.76,6.84,3.08,7.08,5.11-6.65,20.08-12.44,19.9S99.27,82.56,99.27,83.24s4.74,30.16,5.1,33.16.15,6.16-5.64,6.16-6.6-4.1-7.55-10.48S84.53,60.62,82.8,57.96a8.132,8.132,0,0,1-1.59-4.55"
                    fill="#00b2ca" />
                <path id="Path_29974" data-name="Path 29974"
                    d="M75.31,54.23c-3.35,0-4.55,1.98-7.22,2.46-2.93.52-6.85.45-9.4,4.85s-1.28,39.45-2.41,43.33-4.4,8.99-2.55,10.83,5.14,10.21,18.52,8.08,9.41-13.04,9.41-18.29-.78-36.31-2.42-40.81-3.93-10.45-3.93-10.45"
                    fill="#00b2ca" />
                <path id="Path_29975" data-name="Path 29975"
                    d="M58.09,113.27a33.972,33.972,0,0,0-1.32,5.64c-.01.6.42,3.21.42,3.21l.63-3.27.74,5.8.74-5.48.71,6.29.21-4.2,2.09,3.6-1.07-3.5,1.07-2.24,1.16,3.85v-5.22l-.69-4.18-4.68-.3Z"
                    fill="#fff" />
                <path id="Path_29976" data-name="Path 29976"
                    d="M60.01,125.81a.358.358,0,0,1-.24-.09.4.4,0,0,1-.12-.22l-.38-3.44-.36,2.64a.348.348,0,0,1-.12.22.339.339,0,0,1-.46,0,.4.4,0,0,1-.12-.22l-.46-3.6-.21,1.1a.393.393,0,0,1-.13.21.357.357,0,0,1-.23.08.352.352,0,0,1-.23-.09.445.445,0,0,1-.12-.21c-.05-.27-.44-2.66-.43-3.28a33.687,33.687,0,0,1,1.35-5.78.339.339,0,0,1,.14-.15.351.351,0,0,1,.2-.05l4.69.29a.346.346,0,0,1,.33.3l.69,4.18v5.28a.334.334,0,0,1-.09.23.432.432,0,0,1-.22.12.341.341,0,0,1-.24-.05.426.426,0,0,1-.15-.2l-.9-2.97-.62,1.29,1.03,3.37a.313.313,0,0,1-.02.25.392.392,0,0,1-.18.18.359.359,0,0,1-.25.01.389.389,0,0,1-.2-.16l-1.49-2.57-.15,3a.336.336,0,0,1-.11.24.349.349,0,0,1-.24.1h0m.24-4.9a.364.364,0,0,1,.31.18l.55.94-.17-.57a.338.338,0,0,1,.02-.26l1.07-2.24a.339.339,0,0,1,.14-.15.351.351,0,0,1,.2-.05.318.318,0,0,1,.2.08.382.382,0,0,1,.12.17l.47,1.55v-2.79l-.64-3.88-4.15-.26a36.85,36.85,0,0,0-1.2,5.27,10.358,10.358,0,0,0,.11,1.12l.24-1.25a.36.36,0,0,1,.13-.21.4.4,0,0,1,.23-.08.343.343,0,0,1,.34.31l.4,3.11.38-2.8a.348.348,0,0,1,.12-.22.334.334,0,0,1,.23-.09.317.317,0,0,1,.23.09.386.386,0,0,1,.11.22l.23,2.01a.243.243,0,0,1,.1-.14.315.315,0,0,1,.15-.08c.03,0,.06-.01.08-.01"
                    fill="#510394" />
                <path id="Path_29977" data-name="Path 29977"
                    d="M60.22,121.62a.4.4,0,0,1-.15-.03.294.294,0,0,1-.12-.1.369.369,0,0,1-.07-.14.43.43,0,0,1,0-.16l.43-2.08s.03-.09.05-.13a.474.474,0,0,1,.1-.1.3.3,0,0,1,.13-.05h.14a.5.5,0,0,1,.13.05.474.474,0,0,1,.1.1.3.3,0,0,1,.05.13v.14l-.43,2.08a.374.374,0,0,1-.12.2.349.349,0,0,1-.22.08"
                    fill="#510394" />
                <path id="Path_29978" data-name="Path 29978"
                    d="M63.66,113.94c-.52,0-.87-.02-.9-.02l-4.69-.3a.491.491,0,0,1-.12-.03l-1.32-.58a.443.443,0,0,1-.15-.12.3.3,0,0,1-.06-.18l-.49-7.82a.486.486,0,0,1,.02-.14.473.473,0,0,1,.07-.12.444.444,0,0,1,.11-.08.647.647,0,0,1,.13-.04.34.34,0,0,1,.14.02.473.473,0,0,1,.12.07.444.444,0,0,1,.08.11.647.647,0,0,1,.04.13l.48,7.61,1.06.47,4.62.29c1.93.1,5.2-.12,5.71-1.15.36-.83-.01-10.92-.35-19.82-.38-10.06-.73-19.55-.35-21.26a.356.356,0,0,1,.16-.22.361.361,0,0,1,.48.11.344.344,0,0,1,.05.26c-.36,1.62,0,11.52.37,21.08.45,11.95.7,19.31.28,20.16-.4.79-1.61,1.29-3.61,1.48-.7.07-1.37.08-1.87.08"
                    fill="#510394" />
                <path id="Path_29979" data-name="Path 29979"
                    d="M79.37,88.77a.332.332,0,0,1-.21-.07.315.315,0,0,1-.13-.17L68.67,58.7a.88.88,0,0,1-.02-.14.277.277,0,0,1,.03-.13.444.444,0,0,1,.08-.11.473.473,0,0,1,.12-.07.318.318,0,0,1,.14-.02.277.277,0,0,1,.13.03.444.444,0,0,1,.11.08.473.473,0,0,1,.07.12L79.69,88.29a.468.468,0,0,1,.02.17.253.253,0,0,1-.06.15.473.473,0,0,1-.13.11.317.317,0,0,1-.16.04"
                    fill="#510394" />
                <path id="Path_29980" data-name="Path 29980"
                    d="M88.91,87.34h0a.534.534,0,0,1-.13-.03.444.444,0,0,1-.11-.08.24.24,0,0,1-.07-.12.318.318,0,0,1-.02-.14l.76-29.34a.358.358,0,0,1,.11-.25.4.4,0,0,1,.25-.1.277.277,0,0,1,.13.03.444.444,0,0,1,.11.08.24.24,0,0,1,.07.12.675.675,0,0,1,.02.14L89.26,87a.319.319,0,0,1-.11.24.374.374,0,0,1-.25.1"
                    fill="#510394" />
                <path id="Path_29981" data-name="Path 29981"
                    d="M93.28,99.01a.342.342,0,0,1-.33-.33.4.4,0,0,1,.07-.24.317.317,0,0,1,.21-.13l5.92-.88a.43.43,0,0,1,.25.07.36.36,0,0,1,.13.23.35.35,0,0,1-.06.26.368.368,0,0,1-.22.14l-5.92.88h-.05"
                    fill="#510394" />
                <path id="Path_29982" data-name="Path 29982"
                    d="M76.96,99.33h-.05l-5.84-.76a.4.4,0,0,1-.22-.14.361.361,0,0,1-.06-.25.4.4,0,0,1,.12-.23.319.319,0,0,1,.24-.08l5.84.76a.36.36,0,0,1,.21.13.341.341,0,0,1,.07.24.342.342,0,0,1-.33.33Z"
                    fill="#510394" />
            </g>
            <g id="head">
                <path id="Path_29983" data-name="Path 29983"
                    d="M87.65,31.25c-1.16-2.02-6.16-3.85-11.45-3.46s-8.56,2.5-9.62,8.65-5.1,5.58-2.5,11.26c2.24,4.89,5.35,4.71,11.04,4.7a3.486,3.486,0,0,1-.28.78c-.53.87-.42,2.95.58,4.65a4.632,4.632,0,0,0,4.12,2.42h.17a4.068,4.068,0,0,0,2.24-.51,4.011,4.011,0,0,0,1.6-1.64,4.308,4.308,0,0,0-.25-4.12,4.662,4.662,0,0,1-.62-1.68c4.5-.42,8-1.75,8.43-4.5.53-3.34-2.31-14.53-3.46-16.55ZM82.73,54.39a3.557,3.557,0,0,1,.52,1.67,3.625,3.625,0,0,1-.33,1.72,3.43,3.43,0,0,1-3.23,1.76,3.977,3.977,0,0,1-2.13-.51,3.893,3.893,0,0,1-1.53-1.56,4.834,4.834,0,0,1-.72-1.9,4.647,4.647,0,0,1,.14-2.03,4.659,4.659,0,0,0,.4-1.14,51.183,51.183,0,0,0,.84-5.68,16.152,16.152,0,0,0,4.9,2.5,22.648,22.648,0,0,0,.38,3.14,5.564,5.564,0,0,0,.76,2.03Zm3.85-10.31a.374.374,0,0,0-.2.12.349.349,0,0,0-.08.22c-.03,2.04-.36,4.45-.85,4.78a6.813,6.813,0,0,1-3.17-.51c-.12-.03-.23-.07-.35-.11s-.24-.08-.37-.12c-1.9-.65-3.94-1.62-4.78-2.63a1.266,1.266,0,0,1-.11-.13,3.791,3.791,0,0,1-.2-.34c-.11-.19-.21-.39-.31-.59a9.26,9.26,0,0,1-.84-3.14.337.337,0,0,0-.05-.17.374.374,0,0,0-.13-.12c-.63-.33-2.31-1.42-2.52-2.4a.874.874,0,0,1-.01-.36.745.745,0,0,1,.16-.32c.52-.7.83-.86.99-.88h.03c.18-.01.36.15.64.39a2.543,2.543,0,0,0,1.65.8c2.03.08,2.71-1.41,3.38-2.85.82-1.77,1.68-3.6,4.94-3.55,2.5.04,2.75,3.39,2.79,6.83,0,.38.01.74.02,1.04a7.48,7.48,0,0,0,1.09,3.68l-1.72.36Z"
                    fill="#510394" />
                <path id="Path_29984" data-name="Path 29984"
                    d="M83.25,56.06a3.625,3.625,0,0,1-.33,1.72,3.43,3.43,0,0,1-3.23,1.76,3.977,3.977,0,0,1-2.13-.51,3.893,3.893,0,0,1-1.53-1.56,4.834,4.834,0,0,1-.72-1.9,4.647,4.647,0,0,1,.14-2.03,4.659,4.659,0,0,0,.4-1.14,51.183,51.183,0,0,0,.84-5.68,16.152,16.152,0,0,0,4.9,2.5,22.648,22.648,0,0,0,.38,3.14,5.564,5.564,0,0,0,.76,2.03,3.557,3.557,0,0,1,.52,1.67Z"
                    fill="#fff" />
                <path id="Path_29985" data-name="Path 29985"
                    d="M88.3,43.72l-1.72.36a.374.374,0,0,0-.2.12.349.349,0,0,0-.08.22c-.03,2.04-.36,4.45-.85,4.78a6.813,6.813,0,0,1-3.17-.51c-.12-.03-.23-.07-.35-.11s-.24-.08-.37-.12c-1.9-.65-3.94-1.62-4.78-2.63a1.266,1.266,0,0,1-.11-.13,3.791,3.791,0,0,1-.2-.34c-.11-.19-.21-.39-.31-.59a9.26,9.26,0,0,1-.84-3.14.337.337,0,0,0-.05-.17.374.374,0,0,0-.13-.12c-.63-.33-2.31-1.42-2.52-2.4a.874.874,0,0,1-.01-.36.745.745,0,0,1,.16-.32c.52-.7.83-.86.99-.88h.03c.18-.01.36.15.64.39a2.543,2.543,0,0,0,1.65.8c2.03.08,2.71-1.41,3.38-2.85.82-1.77,1.68-3.6,4.94-3.55,2.5.04,2.75,3.39,2.79,6.83,0,.38.01.74.02,1.04a7.48,7.48,0,0,0,1.09,3.68Z"
                    fill="#fff" />
            </g>
        </g>
        <g id="clothes">
            <path id="Path_29986" data-name="Path 29986"
                d="M187.81,94.72c-1.36-1.67,2.92-8.29,3.27-9.72.5-2.03-1.94-4.06-1.1-7.31.08-.31.42-2.01.42-2.01a.729.729,0,0,0-.07-.52.634.634,0,0,0-.42-.31.675.675,0,0,0-.52.07.666.666,0,0,0-.31.42l-.5,1.93a11.4,11.4,0,0,1-9.37,3.09c-2.63-.26-3.14-1.27-3.19-1.9l.72-2.77a.729.729,0,0,0-.07-.52.634.634,0,0,0-.42-.31.675.675,0,0,0-.52.07.666.666,0,0,0-.31.42s-2.79,7.61-1.85,10.45c.74,2.25,2.11,1.85,2.46,3.23s1.19,4.01,0,6.64-17.57,37.07-17.57,37.07,15,9.03,21.89,9.18,26.17-6.74,26.94-10.26-18.11-35.27-19.47-36.94"
                fill="#be73ff" />
            <path id="Path_29987" data-name="Path 29987"
                d="M197.09,75.49l-12.86-8.41v-.74a2.644,2.644,0,0,0,1.29-.75,2.745,2.745,0,0,0,.7-1.31,2.668,2.668,0,0,0-.11-1.48,2.634,2.634,0,0,0-.88-1.2,2.7,2.7,0,0,0-2.85-.3,2.72,2.72,0,0,0-1.51,2.43.7.7,0,0,0,.19.47.65.65,0,0,0,1.11-.47,1.376,1.376,0,0,1,.85-1.28,1.453,1.453,0,0,1,.8-.08,1.411,1.411,0,0,1,.71.38,1.447,1.447,0,0,1,.38.71,1.367,1.367,0,0,1-.08.8,1.341,1.341,0,0,1-.51.62,1.392,1.392,0,0,1-.77.23.642.642,0,0,0-.46.19.666.666,0,0,0-.19.47v1.31l-12.86,8.41a.676.676,0,0,0-.26.32.64.64,0,0,0-.01.41.6.6,0,0,0,.24.34.676.676,0,0,0,.39.13h26.32a.676.676,0,0,0,.39-.13.646.646,0,0,0,.24-.34.636.636,0,0,0-.27-.73m-24.45-.11,10.95-7.16,10.95,7.16h-21.9Z"
                fill="#be73ff" />
            <path id="Path_29988" data-name="Path 29988"
                d="M174.57,94.72c-1.36-1.67,2.91-8.29,3.27-9.72.5-2.03-1.94-4.06-1.1-7.31.08-.31.42-2.01.42-2.01a.729.729,0,0,0-.07-.52.634.634,0,0,0-.42-.31.675.675,0,0,0-.52.07.666.666,0,0,0-.31.42l-.5,1.93a11.4,11.4,0,0,1-9.37,3.09c-2.63-.26-3.14-1.27-3.19-1.9l.72-2.77a.729.729,0,0,0-.07-.52.634.634,0,0,0-.42-.31.675.675,0,0,0-.52.07.666.666,0,0,0-.31.42s-2.79,7.61-1.85,10.45c.74,2.25,2.11,1.85,2.46,3.23s1.19,4.01,0,6.64-17.57,37.07-17.57,37.07,15,9.03,21.89,9.18,26.17-6.74,26.94-10.26-18.11-35.27-19.47-36.94"
                fill="#d19cff" />
            <path id="Path_29989" data-name="Path 29989"
                d="M183.86,75.49,171,67.08v-.74a2.644,2.644,0,0,0,1.29-.75,2.745,2.745,0,0,0,.7-1.31,2.668,2.668,0,0,0-.11-1.48,2.634,2.634,0,0,0-.88-1.2,2.8,2.8,0,0,0-1.38-.56,2.721,2.721,0,0,0-1.46.26,2.6,2.6,0,0,0-1.1,1,2.672,2.672,0,0,0-.41,1.43.7.7,0,0,0,.19.47.65.65,0,0,0,1.11-.47,1.376,1.376,0,0,1,.85-1.28,1.453,1.453,0,0,1,.8-.08,1.411,1.411,0,0,1,.71.38,1.447,1.447,0,0,1,.38.71,1.367,1.367,0,0,1-.08.8,1.341,1.341,0,0,1-.51.62,1.392,1.392,0,0,1-.77.23.649.649,0,0,0-.65.66v1.31l-12.86,8.41a.676.676,0,0,0-.26.32.64.64,0,0,0-.01.41.6.6,0,0,0,.24.34.676.676,0,0,0,.39.13H183.5a.676.676,0,0,0,.39-.13.646.646,0,0,0,.24-.34.636.636,0,0,0-.27-.73m-24.47-.11,10.95-7.16,10.95,7.16h-21.9Z"
                fill="#d19cff" />
            <path id="Path_29990" data-name="Path 29990"
                d="M161.34,94.72c-1.36-1.67,2.92-8.29,3.27-9.72.5-2.03-1.94-4.06-1.1-7.31.08-.31.42-2.01.42-2.01a.729.729,0,0,0-.07-.52.634.634,0,0,0-.42-.31.675.675,0,0,0-.52.07.666.666,0,0,0-.31.42l-.5,1.93a11.4,11.4,0,0,1-9.37,3.09c-2.64-.26-3.14-1.27-3.19-1.9l.72-2.77a.729.729,0,0,0-.07-.52.634.634,0,0,0-.42-.31.675.675,0,0,0-.52.07.666.666,0,0,0-.31.42s-2.79,7.61-1.85,10.45c.74,2.25,2.11,1.85,2.46,3.23s1.19,4.01,0,6.64-17.57,37.07-17.57,37.07,15,9.03,21.89,9.18,26.17-6.74,26.94-10.26-18.11-35.27-19.47-36.94"
                fill="#dfbaff" />
            <path id="Path_29991" data-name="Path 29991"
                d="M170.62,75.49l-12.86-8.41v-.74a2.644,2.644,0,0,0,1.29-.75,2.745,2.745,0,0,0,.7-1.31,2.668,2.668,0,0,0-.11-1.48,2.634,2.634,0,0,0-.88-1.2,2.8,2.8,0,0,0-1.38-.56,2.721,2.721,0,0,0-1.46.26,2.72,2.72,0,0,0-1.51,2.43.7.7,0,0,0,.19.47.65.65,0,0,0,1.11-.47,1.376,1.376,0,0,1,.85-1.28,1.453,1.453,0,0,1,.8-.08,1.371,1.371,0,0,1,.71.38,1.447,1.447,0,0,1,.38.71,1.367,1.367,0,0,1-.08.8,1.376,1.376,0,0,1-1.28.85.649.649,0,0,0-.65.66v1.31l-12.86,8.41a.676.676,0,0,0-.26.32.64.64,0,0,0-.01.41.6.6,0,0,0,.24.34.676.676,0,0,0,.39.13h26.32a.676.676,0,0,0,.39-.13.646.646,0,0,0,.24-.34.636.636,0,0,0-.27-.73m-24.46-.1,10.95-7.16,10.95,7.16Z"
                fill="#dfbaff" />
            <path id="Path_29992" data-name="Path 29992"
                d="M201.71,63.38H129.95a1.81,1.81,0,0,0-1.82,1.82V194.67h9.89a.91.91,0,0,0,0-1.82h-8.06V66.05a.816.816,0,0,1,.25-.59.839.839,0,0,1,.6-.25h70.07a.816.816,0,0,1,.59.25.834.834,0,0,1,.25.59v126.8h-8.06a.91.91,0,0,0,0,1.82h9.89V65.2a1.86,1.86,0,0,0-.14-.7,1.814,1.814,0,0,0-.4-.59,1.786,1.786,0,0,0-.59-.39,1.86,1.86,0,0,0-.7-.14"
                fill="#be73ff" />
        </g>
    </g>
</svg>
