<svg xmlns="http://www.w3.org/2000/svg" width="338.996" height="224.412" viewBox="0 0 338.996 224.412">
    <defs>
        <linearGradient id="linear-gradient" y1="0.5" x2="1" y2="0.5"
            gradientUnits="objectBoundingBox">
            <stop offset="0" stop-color="#d3d6db" />
            <stop offset="1" stop-color="#7a869b" />
        </linearGradient>
        <linearGradient id="linear-gradient-2" y1="0.5" x2="1" y2="0.5"
            gradientUnits="objectBoundingBox">
            <stop offset="0" stop-color="#510394" />
            <stop offset="0.14" stop-color="#4a0387" />
            <stop offset="0.4" stop-color="#380368" />
            <stop offset="0.74" stop-color="#1b0334" />
            <stop offset="1" stop-color="#030408" />
        </linearGradient>
    </defs>
    <g id="onbo_b" transform="translate(0.004)">
        <path id="shape"
            d="M.13,96.45C-3.74,16.85,77.54,4.24,110.64,19.88c14.25,6.74,8.6,21,22.84,36.3,40.67,43.67,153.78,5.57,183.5,39.88,19.26,22.23,30.39,45.88,14.26,68.02C282.84,230.51,3.52,166.11.13,96.45Z"
            fill="#f6f5fa" />
        <path id="shad"
            d="M31.06,210.41c-5.93.69-15.58,1.97-15.64,3.8-.06,1.65,7.71,3.01,10.43,3.48,31.08,5.42,37.83-3.67,78.95.26,21.57,2.06,18.31,5.47,37.44,6.33,26.17,1.18,66.06-5.96,98.77-5.64,13.96.14,14.18,1.29,33.17,2.22,7.46.36,59.73,2.85,60.66-.95.17-.69-1.09-2.6-23.7-7.28,0,0-107.92-22.35-280.09-2.22"
            opacity="0.3" fill="url(#linear-gradient)" />
        <g id="slider">
            <path id="Path_29882" data-name="Path 29882"
                d="M281.14,67.87H220.77a6.111,6.111,0,0,1-6.12-6.12V33.44a6.111,6.111,0,0,1,6.12-6.12h60.37a6.111,6.111,0,0,1,6.12,6.12V61.75a6.111,6.111,0,0,1-6.12,6.12"
                fill="#f6eeff" opacity="0.6" />
            <path id="Path_29883" data-name="Path 29883"
                d="M277.23,40.47H256.45a1.34,1.34,0,1,1,0-2.68h20.78a1.33,1.33,0,0,1,.93.41,1.351,1.351,0,0,1-.93,2.29"
                fill="#bb88fc" />
            <path id="Path_29884" data-name="Path 29884"
                d="M267.75,47.59h-11.3a1.34,1.34,0,1,1,0-2.68h11.3a1.6,1.6,0,0,1,.53.09,1.338,1.338,0,0,1,.45.29,1.324,1.324,0,0,1,.3.44,1.348,1.348,0,0,1,.11.52,1.311,1.311,0,0,1-.11.52,1.231,1.231,0,0,1-.3.44,1.338,1.338,0,0,1-.45.29A1.211,1.211,0,0,1,267.75,47.59Z"
                fill="#bb88fc" />
            <g id="Group_6090" data-name="Group 6090" opacity="0.59">
                <path id="Path_29885" data-name="Path 29885"
                    d="M232.18,36.52a6.1,6.1,0,0,0-.62,3.36,1.978,1.978,0,0,0,.14.53.7.7,0,0,1,.07.31.6.6,0,0,1-.16.34.723.723,0,0,1-.32.2h-.02s-.02,0-.02-.01l-.18-.17s-.01-.02-.02-.02,0-.02,0-.03a4.947,4.947,0,0,0-.13-.94v-.06a1.847,1.847,0,0,0,.1-.57,5.875,5.875,0,0,1,.69-3.36,5.962,5.962,0,0,1,2.43-2.42,4.718,4.718,0,0,1,2.79-.42,4.832,4.832,0,0,1,2.55,1.22,6.047,6.047,0,0,1,1.93,4.15c.01.21.02.67.01,1.38,0,.2.15.48.16.68a.545.545,0,0,1-.05.22.463.463,0,0,1-.13.18.615.615,0,0,1-.19.12.422.422,0,0,1-.22.03.456.456,0,0,1-.22-.06.489.489,0,0,1-.18-.14.564.564,0,0,1-.11-.2.55.55,0,0,1-.02-.22.813.813,0,0,1,.12-.29,1.892,1.892,0,0,0,.27-.9,5.3,5.3,0,0,0-2.3-4.78,4.259,4.259,0,0,0-1.75-.64,4.493,4.493,0,0,0-1.86.13,4.655,4.655,0,0,0-1.64.88,4.427,4.427,0,0,0-1.13,1.48Z"
                    fill="#bb88fc" />
                <path id="Path_29886" data-name="Path 29886"
                    d="M228.91,38.72c.2-.09.41-.21.57-.06a3.268,3.268,0,0,1,1,2.31V41c0,.01-.01.01-.02.02l-1.06.63h-.06a3.709,3.709,0,0,1-1.77-2.1c-.04-.16.1-.26.24-.33l1.1-.5Z"
                    fill="#bb88fc" />
                <path id="Path_29887" data-name="Path 29887"
                    d="M230.45,43.38l-.96-.99a.4.4,0,0,0-.03-.04V42.3a.055.055,0,0,1,.02-.05.045.045,0,0,1,.04-.03l1.12-.67s.05-.02.07-.01a.1.1,0,0,1,.07.04l.94,1.04a.147.147,0,0,1,.02.04v.05a.055.055,0,0,1-.02.05c-.01.01-.02.03-.04.03l-1.1.62s-.05.02-.07.01a.212.212,0,0,1-.07-.03Z"
                    fill="#bb88fc" />
                <path id="Path_29888" data-name="Path 29888"
                    d="M241.86,42.56c.58-.09,1.15-.19,1.73-.3.44-.09.82-.09,1.05.3a2.022,2.022,0,0,1,.16.53,82.332,82.332,0,0,1,1.27,8.57,33.228,33.228,0,0,1,.13,4.35,4.32,4.32,0,0,1-.27,1.74,2.62,2.62,0,0,1-.74.97,2.68,2.68,0,0,1-1.1.53,5.915,5.915,0,0,1-1.11.07H229.01a2.573,2.573,0,0,1-1.43-.42,2.62,2.62,0,0,1-.98-1.13,4.343,4.343,0,0,1-.29-1.07,18.455,18.455,0,0,1-.28-3.56.428.428,0,0,1,.06-.22,62.45,62.45,0,0,1,3.18-5.42c.01-.02.02-.02.02,0-.13,1.67-.26,3.33-.4,5a.583.583,0,0,0,.03.23.522.522,0,0,0,.14.19c.63.6,1.27,1.2,1.91,1.81a.5.5,0,0,0,.22.13.565.565,0,0,0,.26.02.513.513,0,0,0,.24-.1.551.551,0,0,0,.17-.2,1.194,1.194,0,0,0,.06-.37q.18-2.9.38-5.78c0-.02,0-.03.03-.02a1.255,1.255,0,0,0,.51.1,1.156,1.156,0,0,0,.51-.12c.34-.15.68-.31,1.02-.46a1.226,1.226,0,0,0,.84-1.1,2.1,2.1,0,0,0-.17-.78A5.612,5.612,0,0,0,232.63,43a38.15,38.15,0,0,0,7.85-.24h.02v-.02l.08-.98a.031.031,0,0,1,.04-.02,1.135,1.135,0,0,0,.52.07,1.038,1.038,0,0,0,.49-.18c.02-.01.04,0,.04.02l.16.9a.01.01,0,0,0,.01.01h.02Zm2.44,14.27a.366.366,0,0,0-.04-.18.863.863,0,0,0-.1-.16.537.537,0,0,0-.16-.1.584.584,0,0,0-.18-.04h-2.91a.646.646,0,0,0-.19.04.537.537,0,0,0-.16.1.336.336,0,0,0-.1.16.584.584,0,0,0-.04.18v.6a.366.366,0,0,0,.04.18.537.537,0,0,0,.1.16.435.435,0,0,0,.16.1.584.584,0,0,0,.18.04h2.91a.646.646,0,0,0,.19-.04.419.419,0,0,0,.16-.11.436.436,0,0,0,.1-.16.584.584,0,0,0,.04-.18v-.6Z"
                    fill="#bb88fc" />
                <path id="Path_29889" data-name="Path 29889"
                    d="M226.74,45.53s-.02.02-.02,0c.08-.69.17-1.38.27-2.08.09-.57.11-1,.68-1.14a2.974,2.974,0,0,1,1.11.18c.02,0,.02.02.01.03l-2.06,3.01Z"
                    fill="#bb88fc" />
                <path id="Path_29890" data-name="Path 29890"
                    d="M223.68,51.78c.56-1.11,1.17-2.19,1.82-3.25,1.18-1.91,2.41-3.78,3.71-5.61h0c.29.31.58.61.88.91a.588.588,0,0,0,.36.13h.02a.031.031,0,0,0,.01.02l.13,1.02v.02a.031.031,0,0,1-.01.02,18.157,18.157,0,0,0-3.18,4.35c-1.25,2.24-2.5,4.48-3.77,6.71l-.02.02h-.03a.076.076,0,0,1-.04-.01c-.01,0-.02-.02-.03-.03a3.2,3.2,0,0,1-.46-3.08q.15-.39.57-1.23Z"
                    fill="#bb88fc" />
                <path id="Path_29891" data-name="Path 29891"
                    d="M231.88,43.33c1.36.31,2.26,1.9,2.7,3.13a.741.741,0,0,1,.06.36.711.711,0,0,1-.13.34,1.437,1.437,0,0,1-.52.33l-.66.3a1.466,1.466,0,0,1-.54.16.611.611,0,0,1-.3-.08.791.791,0,0,1-.24-.21,6.973,6.973,0,0,1-1.19-3.86v-.03s.01-.02.02-.02l.74-.42h.06Z"
                    fill="#bb88fc" />
                <path id="Path_29892" data-name="Path 29892"
                    d="M230.77,45.71a5.525,5.525,0,0,0,.97,2.22.142.142,0,0,1,.02.06l-.41,6.29h0l-1.85-1.73a.035.035,0,0,1-.01-.02V52.5l.48-5.91v-.02l.79-.89s.04-.02.05.01Z"
                    fill="#bb88fc" />
                <path id="Path_29893" data-name="Path 29893" d="M243.74,56.9h-2.76v.46h2.76Z"
                    fill="#bb88fc" />
            </g>
        </g>
        <g id="screen">
            <g id="device">
                <path id="phone"
                    d="M127.21,0a14.756,14.756,0,0,0-5.6,1.11,14.6,14.6,0,0,0-9.02,13.51V196.63a14.613,14.613,0,0,0,14.62,14.62h75.56a14.607,14.607,0,0,0,13.51-9.03,14.53,14.53,0,0,0,1.11-5.6v-182A14.613,14.613,0,0,0,202.77,0H127.21Z"
                    fill="url(#linear-gradient-2)" />
                <path id="Path_29894" data-name="Path 29894"
                    d="M200.36,5.71H128.59a10.025,10.025,0,0,0-3.83.76,9.912,9.912,0,0,0-3.25,2.17,10.008,10.008,0,0,0-2.93,7.08V193.96a10.025,10.025,0,0,0,.76,3.83,10,10,0,0,0,5.42,5.42,10.1,10.1,0,0,0,3.83.76h71.77a10.025,10.025,0,0,0,3.83-.76,9.912,9.912,0,0,0,3.25-2.17,10.008,10.008,0,0,0,2.93-7.09V15.73a10.025,10.025,0,0,0-.76-3.83,10,10,0,0,0-5.42-5.42,10.113,10.113,0,0,0-3.84-.76Z"
                    fill="#fff" />
            </g>
            <g id="status_bar" data-name="status bar">
                <path id="Path_29895" data-name="Path 29895"
                    d="M134.97,13.72h-9.1a1.458,1.458,0,0,1-1.05-.44,1.49,1.49,0,0,1,1.05-2.54h9.1a1.475,1.475,0,0,1,1.05.44,1.49,1.49,0,0,1-1.05,2.54Z"
                    fill="#510394" />
                <path id="Path_29896" data-name="Path 29896"
                    d="M195.04,13.72h-.4a1.458,1.458,0,0,1-1.05-.44,1.49,1.49,0,0,1,1.05-2.54h.4a1.475,1.475,0,0,1,1.05.44,1.49,1.49,0,0,1-1.05,2.54Z"
                    fill="#510394" />
                <path id="Path_29897" data-name="Path 29897"
                    d="M203.74,13.72h-3.99a1.458,1.458,0,0,1-1.05-.44,1.49,1.49,0,0,1,1.05-2.54h3.99a1.475,1.475,0,0,1,1.05.44,1.49,1.49,0,0,1-1.05,2.54Z"
                    fill="#510394" />
                <path id="Path_29898" data-name="Path 29898"
                    d="M167.52,12.23a2.531,2.531,0,0,1-1.57,2.33,2.514,2.514,0,0,1-1.46.14,2.522,2.522,0,0,1-1.98-1.98,2.507,2.507,0,0,1,1.07-2.59,2.486,2.486,0,0,1,1.4-.43,2.7,2.7,0,0,1,.97.19,2.417,2.417,0,0,1,.82.55,2.57,2.57,0,0,1,.55.82,2.5,2.5,0,0,1,.19.97Z"
                    fill="#510394" />
            </g>
            <g id="card_c" data-name="card c">
                <g id="Group_6092" data-name="Group 6092" opacity="0.59">
                    <g id="Group_6091" data-name="Group 6091">
                        <path id="Path_29899" data-name="Path 29899"
                            d="M195.17,67.87H134.8a6.111,6.111,0,0,1-6.12-6.12V33.44a6.166,6.166,0,0,1,1.79-4.33,6.089,6.089,0,0,1,4.33-1.79h60.37a6.111,6.111,0,0,1,6.12,6.12V61.75a6.111,6.111,0,0,1-6.12,6.12"
                            fill="#f6eeff" />
                    </g>
                </g>
                <g id="Group_6094" data-name="Group 6094" opacity="0.59">
                    <g id="Group_6093" data-name="Group 6093">
                        <path id="Path_29900" data-name="Path 29900"
                            d="M161.88,45.37l-2.14-6.91a.939.939,0,0,0-.14-.26.578.578,0,0,0-.23-.18l-5.3-2.65a.682.682,0,0,0-.37-.07h-.03a4.7,4.7,0,0,1-1.7,1.7,4.641,4.641,0,0,1-6.34-1.7h-.03a.9.9,0,0,0-.37.07l-5.3,2.65a.683.683,0,0,0-.23.18.722.722,0,0,0-.14.26l-2.13,6.91a.75.75,0,0,0,.02.49.741.741,0,0,0,.33.37l3.66,1.99v7.24a3.534,3.534,0,0,0,2.23,3.29,16.607,16.607,0,0,0,5.99,1.15,16.788,16.788,0,0,0,6.07-1.16,3.553,3.553,0,0,0,2.25-3.29V48.17l3.56-1.93a.732.732,0,0,0,.35-.86"
                            fill="#bb88fc" />
                    </g>
                </g>
                <path id="Path_29901" data-name="Path 29901"
                    d="M191.25,40.47H170.47a1.34,1.34,0,1,1,0-2.68h20.78a1.33,1.33,0,0,1,.93.41,1.351,1.351,0,0,1-.93,2.29"
                    fill="#bb88fc" />
                <path id="Path_29902" data-name="Path 29902"
                    d="M181.77,47.59h-11.3a1.34,1.34,0,1,1,0-2.68h11.3a1.33,1.33,0,0,1,.93.41,1.351,1.351,0,0,1-.93,2.29Z"
                    fill="#bb88fc" />
            </g>
            <g id="card_b" data-name="card b">
                <g id="Group_6096" data-name="Group 6096" opacity="0.59">
                    <g id="Group_6095" data-name="Group 6095">
                        <path id="Path_29903" data-name="Path 29903"
                            d="M195.17,135.39H134.8a6.111,6.111,0,0,1-6.12-6.12V82.38a6.111,6.111,0,0,1,6.12-6.12h60.37a6.111,6.111,0,0,1,6.12,6.12v46.89a6.111,6.111,0,0,1-6.12,6.12"
                            fill="#f6eeff" />
                    </g>
                </g>
                <path id="Path_29904" data-name="Path 29904"
                    d="M191.25,118.76H138.72a1.29,1.29,0,0,1-.93-.41,1.351,1.351,0,0,1,.93-2.29h52.53a1.351,1.351,0,0,1,.93,2.29A1.354,1.354,0,0,1,191.25,118.76Z"
                    fill="#bb88fc" />
                <path id="Path_29905" data-name="Path 29905"
                    d="M168.94,125.89H138.72a1.34,1.34,0,1,1,0-2.68h30.22a1.351,1.351,0,0,1,0,2.7Z"
                    fill="#bb88fc" />
                <path id="Path_29906" data-name="Path 29906"
                    d="M142.16,107.45a2.391,2.391,0,0,1-2.85,2.35,2.371,2.371,0,0,1-1.87-1.87,2.42,2.42,0,0,1,.14-1.38,2.365,2.365,0,0,1,.88-1.07,2.393,2.393,0,0,1,3.72,1.99Z"
                    fill="#bb88fc" />
                <path id="Path_29907" data-name="Path 29907"
                    d="M154.42,107.45a2.391,2.391,0,0,1-2.85,2.35,2.385,2.385,0,0,1-1.22-.65,2.313,2.313,0,0,1-.65-1.22,2.42,2.42,0,0,1,.14-1.38,2.365,2.365,0,0,1,.88-1.07,2.393,2.393,0,0,1,3.72,1.99Z"
                    fill="#bb88fc" />
                <g id="Group_6097" data-name="Group 6097" opacity="0.59">
                    <path id="Path_29908" data-name="Path 29908"
                        d="M189.17,83.29h3.93v.01l.27,1.29H188.9l.28-1.3v-.01h.01Z"
                        fill="#bb88fc" />
                    <path id="Path_29909" data-name="Path 29909"
                        d="M188.78,85.08h4.69v.01l.75,3.62h-6.21l.79-3.62v-.01h.01Z"
                        fill="#bb88fc" />
                    <path id="Path_29910" data-name="Path 29910"
                        d="M191.53,108.29h1.39a2.11,2.11,0,0,1,.79.08,1.014,1.014,0,0,1,.36.25.924.924,0,0,1,.21.39h0v.01h-6.26a.045.045,0,0,1-.03-.04,1.067,1.067,0,0,1,.2-.38.94.94,0,0,1,.34-.25,1.771,1.771,0,0,1,.69-.08h1.54V89.19h.73v19.08h.01Z"
                        fill="#bb88fc" />
                    <path id="Path_29911" data-name="Path 29911"
                        d="M181.52,93.5a2.419,2.419,0,0,1,1.55.52,2.454,2.454,0,0,1,.87,1.38,6.129,6.129,0,0,1,.07,1.13v2.44a1.836,1.836,0,0,1-.06.47c-.14.57-.29,1.15-.43,1.72a.031.031,0,0,1-.01.02H171.03v-.01c-.14-.57-.29-1.15-.43-1.72a1.973,1.973,0,0,1-.06-.48V95.74a1.459,1.459,0,0,1,.11-.55,2.364,2.364,0,0,1,.68-1.05,2.509,2.509,0,0,1,1.11-.57,6.129,6.129,0,0,1,1.13-.07h7.96Zm-9.01,1.78a.205.205,0,0,0-.21-.21h-.39a.205.205,0,0,0-.21.21v.03a.205.205,0,0,0,.21.21h.38a.205.205,0,0,0,.21-.21v-.03Zm5.23,0a.2.2,0,0,0-.06-.15.22.22,0,0,0-.15-.06h-4.05a.2.2,0,0,0-.15.06.221.221,0,0,0-.06.15v.02a.2.2,0,0,0,.06.15.22.22,0,0,0,.15.06h4.05a.2.2,0,0,0,.15-.06.221.221,0,0,0,.06-.15Z"
                        fill="#bb88fc" />
                    <path id="Path_29912" data-name="Path 29912"
                        d="M171.23,103.69a1.271,1.271,0,0,0,.45.38,1.253,1.253,0,0,0,.57.13h9.88a1.188,1.188,0,0,0,.67-.1,1.215,1.215,0,0,0,.51-.44,2.314,2.314,0,0,0,.23-.67l.76-3.17a1.586,1.586,0,0,1,.2-.55.672.672,0,0,1,.26-.21.592.592,0,0,1,.32-.06h1.17c.64,0,.92.41.77,1.02l-1,4.15a4.589,4.589,0,0,1-.31.95,2.7,2.7,0,0,1-.77.97,2.655,2.655,0,0,1-1.13.52,3.948,3.948,0,0,1-.91.07H171.29a2.731,2.731,0,0,1-1.49-.44,2.814,2.814,0,0,1-1.03-1.16,6.851,6.851,0,0,1-.33-1.09c-.32-1.33-.64-2.65-.96-3.98a.706.706,0,0,1-.05-.38.816.816,0,0,1,.15-.36.788.788,0,0,1,.31-.23.859.859,0,0,1,.39-.05h1.14c.49,0,.66.29.77.74.27,1.12.54,2.24.81,3.37a1.993,1.993,0,0,0,.22.59Z"
                        fill="#bb88fc" />
                    <path id="Path_29913" data-name="Path 29913"
                        d="M172.24,103.74a.792.792,0,0,1-.4-.1.678.678,0,0,1-.28-.3c-.05-.14-.09-.29-.13-.44-.1-.41-.2-.82-.29-1.23,0-.02,0-.03.02-.03h12.21s.03.01.02.03c-.1.45-.21.9-.32,1.35a1.258,1.258,0,0,1-.21.49.725.725,0,0,1-.25.18.634.634,0,0,1-.3.05H172.25Z"
                        fill="#bb88fc" />
                    <path id="Path_29914" data-name="Path 29914"
                        d="M172.29,109.04h-.97l.5-1.86v-.01h1.46l-.98,1.86h0Z" fill="#bb88fc" />
                    <path id="Path_29915" data-name="Path 29915"
                        d="M181.25,107.14h1.47l.5,1.86h-.97l-.98-1.86h0Z" fill="#bb88fc" />
                </g>
            </g>
            <g id="card_a" data-name="card a">
                <g id="Group_6099" data-name="Group 6099" opacity="0.59">
                    <g id="Group_6098" data-name="Group 6098">
                        <path id="Path_29916" data-name="Path 29916"
                            d="M195.17,184.55H134.8a6.111,6.111,0,0,1-6.12-6.12V150.12A6.111,6.111,0,0,1,134.8,144h60.37a6.111,6.111,0,0,1,6.12,6.12v28.31a6.111,6.111,0,0,1-6.12,6.12"
                            fill="#f6eeff" />
                    </g>
                </g>
                <path id="Path_29917" data-name="Path 29917"
                    d="M191.25,157.15H170.47a1.6,1.6,0,0,1-.53-.09,1.339,1.339,0,0,1-.45-.29,1.324,1.324,0,0,1-.3-.44,1.284,1.284,0,0,1,0-1.04,1.325,1.325,0,0,1,.3-.44,1.512,1.512,0,0,1,.45-.29,1.211,1.211,0,0,1,.53-.09h20.78a1.33,1.33,0,0,1,.93.41,1.351,1.351,0,0,1-.93,2.29"
                    fill="#bb88fc" />
                <path id="Path_29918" data-name="Path 29918"
                    d="M181.77,164.28h-11.3a1.29,1.29,0,0,1-.93-.41,1.351,1.351,0,0,1,.93-2.29h11.3a1.29,1.29,0,0,1,.93.41,1.351,1.351,0,0,1-.93,2.29Z"
                    fill="#bb88fc" />
                <g id="Group_6100" data-name="Group 6100" opacity="0.59">
                    <path id="Path_29919" data-name="Path 29919"
                        d="M155.77,154.16l-3.42-2.38a.187.187,0,0,1-.03-.04.469.469,0,0,1,0-.33.491.491,0,0,1,.21-.26.829.829,0,0,1,.41-.07h2.29c.39,0,.58.12.58.52v2.55s-.01.03-.03.02Z"
                        fill="#bb88fc" />
                    <path id="Path_29920" data-name="Path 29920"
                        d="M149.65,154.33q-3.57,2.475-7.13,4.97c-.3.21-.53.06-.72-.21l-.97-1.39c-.23-.34,0-.55.27-.74l8.24-5.74a.515.515,0,0,1,.29-.13.463.463,0,0,1,.3.09l8.29,5.77c.33.23.52.42.25.8-.31.45-.63.9-.95,1.36a.522.522,0,0,1-.14.19.512.512,0,0,1-.21.1.583.583,0,0,1-.23-.02.493.493,0,0,1-.2-.13q-3.525-2.46-7.05-4.91h-.05Z"
                        fill="#bb88fc" />
                    <path id="Path_29921" data-name="Path 29921"
                        d="M147.48,158.95a.471.471,0,0,0-.17.04.486.486,0,0,0-.14.11.462.462,0,0,0-.09.15.372.372,0,0,0-.02.18v4.76h-3.47v-4.53s0-.01.02-.02l6.07-4.23h.04l6.07,4.23.02.02v4.45a.02.02,0,0,1-.02.02l-.71.71h-.04a3.849,3.849,0,0,0-2.7-.63h0v-4.65c0-.38-.12-.58-.51-.58h-4.3Z"
                        fill="#bb88fc" />
                    <path id="Path_29922" data-name="Path 29922"
                        d="M155.16,166.38a2.152,2.152,0,0,1,.19.91,2.016,2.016,0,0,1-.21.9,2.233,2.233,0,0,1-.56.74,2.155,2.155,0,0,1-.82.43,3.5,3.5,0,0,1-.85.08h-4.37a.868.868,0,0,0-.42.07.391.391,0,0,0-.14.17.537.537,0,0,0-.05.21.394.394,0,0,0,.06.21.573.573,0,0,0,.15.16.718.718,0,0,0,.33.05h4.16a7.965,7.965,0,0,0,1.09-.06,3.055,3.055,0,0,0,1.96-4.77h0v-.02h0l2.73-2.73a2.179,2.179,0,0,1,.77-.5,2.012,2.012,0,0,1,.91-.12,2.043,2.043,0,0,1,1.53.91,2.16,2.16,0,0,1,.3.99,2.119,2.119,0,0,1-.2,1.02,4.871,4.871,0,0,1-.46.75q-1.785,2.565-3.55,5.14a4.8,4.8,0,0,1-1.88,1.64,4.715,4.715,0,0,1-2.13.38h-7.08a2.053,2.053,0,0,0-.27.02h-.03a.02.02,0,0,1-.02-.02l-6.03-6.02h0a5.019,5.019,0,0,1,3.71-1.82h8.66a4.736,4.736,0,0,1,1.06.08,1.931,1.931,0,0,1,.88.44,2.081,2.081,0,0,1,.59.79Z"
                        fill="#bb88fc" />
                    <path id="Path_29923" data-name="Path 29923"
                        d="M146.36,174.25l-7.61-7.61-3.24,3.24,7.61,7.61Z" fill="#bb88fc" />
                </g>
            </g>
        </g>
        <g id="tree">
            <path id="Path_29924" data-name="Path 29924"
                d="M266.32,210.52H242.67a1.557,1.557,0,0,1-1.04-.4,1.5,1.5,0,0,1-.51-.98l-3.73-32.83H271.6l-3.73,32.83a1.5,1.5,0,0,1-.51.98,1.588,1.588,0,0,1-1.04.4"
                fill="#00b2ca" />
            <path id="Path_29925" data-name="Path 29925"
                d="M271.6,176.7c0,1.07-7.66,1.94-17.1,1.94s-17.11-.87-17.11-1.94,7.66-1.94,17.11-1.94S271.6,175.63,271.6,176.7Z"
                fill="#1c2b6b" />
            <path id="Path_29926" data-name="Path 29926"
                d="M252.95,113.33c-9.33.78-6.22,28.77-6.22,28.77,2.33,24.1,5.44,34.99,7.78,35.77s7-34.21,7-42.76c0,0,.78-22.55-8.55-21.77"
                fill="#1e3286" />
            <path id="Path_29927" data-name="Path 29927"
                d="M254.11,173.98h-.05a.388.388,0,0,1-.26-.15.414.414,0,0,1-.08-.29c3.07-25.32-.74-57.13-.78-57.44a.459.459,0,0,1,.08-.28.376.376,0,0,1,.26-.14.358.358,0,0,1,.28.08.407.407,0,0,1,.15.25c.04.32,3.86,32.22.78,57.63a.383.383,0,0,1-.13.24.4.4,0,0,1-.26.1"
                fill="#fff" />
            <path id="Path_29928" data-name="Path 29928"
                d="M224.95,100.11c-.78,3.89,3.89,4.66,4.66,10.11s-1.55,7-.78,10.11,5.44,3.89,6.22,11.66-2.33,7-1.56,11.66,5.44,4.66,6.22,8.55.78,9.33,2.33,14,6.22,11.66,8.55,11.66,8.55-13.22,7-17.11-3.89-4.66-3.89-7.77,3.11-10.88,2.33-16.33-7.78-7.77-8.55-11.66,1.56-14-3.89-18.66-17.88-10.11-18.66-6.22"
                fill="#fa6e53" />
            <path id="Path_29929" data-name="Path 29929"
                d="M298.82,108.66c2.75,2.75-6.22,3.89-7,9.33s-.78,7.78-3.89,10.89-7.77,3.89-7,8.55,2.33,9.33,0,11.66-7.77,2.33-9.33,6.22-.78,8.55-3.89,12.44-7.78,11.66-11.66,10.11-1.55-19.44,0-22.55,3.11-5.44,3.11-7.78-.78-6.22.78-10.11,10.11-5.44,10.88-7.77,1.56-14.77,6.22-17.88,17.1-7.78,21.77-3.11"
                fill="#40cd8a" />
            <path id="Path_29930" data-name="Path 29930"
                d="M257.26,176.53a.455.455,0,0,1-.2-.05.316.316,0,0,1-.14-.14.455.455,0,0,1-.05-.2.308.308,0,0,1,.06-.19c.03-.05,3.15-5.26,3.8-7.89.17-.68.37-1.7.61-2.89.86-4.32,2.16-10.84,4.16-12.84,2.9-2.9,7.54-11.79,10.79-23.16,4-14.01,17.24-18.11,17.37-18.15a.369.369,0,0,1,.29.04.379.379,0,0,1,.18.23.367.367,0,0,1-.03.29.407.407,0,0,1-.22.19c-.13.04-12.96,4.03-16.84,17.62-3.29,11.5-8.01,20.52-10.98,23.49-1.83,1.83-3.15,8.47-3.94,12.44-.24,1.2-.45,2.23-.62,2.93-.69,2.74-3.76,7.88-3.89,8.1a.376.376,0,0,1-.14.14.414.414,0,0,1-.19.05"
                fill="#fff" />
            <path id="Path_29931" data-name="Path 29931"
                d="M250.57,174.83a.376.376,0,0,1-.38-.38c0-.1-.07-10.2-3.03-13.17-3-3-4.72-12.2-5.56-29.8-.76-16-12.23-29.18-12.34-29.31a.258.258,0,0,1-.08-.13.262.262,0,0,1-.02-.15.282.282,0,0,1,.04-.15.273.273,0,0,1,.09-.12.638.638,0,0,1,.14-.08.389.389,0,0,1,.15-.02.419.419,0,0,1,.15.04.294.294,0,0,1,.12.1c.12.13,11.76,13.51,12.54,29.78.82,17.16,2.51,26.47,5.33,29.29,3.19,3.19,3.25,13.29,3.26,13.71a.43.43,0,0,1-.11.28.386.386,0,0,1-.27.11h0Z"
                fill="#fff" />
        </g>
        <g id="Man">
            <g id="shoes">
                <path id="Path_29932" data-name="Path 29932"
                    d="M89.48,192.59s.08,3.1-.65,4.49-1.39,1.68-1.06,2.16,3.46,6.6,6.56,6.03a9.058,9.058,0,0,0,3.34-1.74,8.935,8.935,0,0,0,2.31-2.97c.08-.69-3.51-4.05-3.26-7.11.1-1.3-7.23-.86-7.23-.86Z"
                    fill="#fff" />
                <path id="Path_29933" data-name="Path 29933"
                    d="M93.91,205.67c-1.9,0-4-1.99-6.28-5.93-.08-.14-.14-.24-.17-.29-.34-.51-.04-.91.3-1.38a7.851,7.851,0,0,0,.74-1.16c.68-1.29.61-4.28.61-4.31a.376.376,0,0,1,.35-.38c1.06-.07,6.4-.33,7.4.68a.563.563,0,0,1,.17.26.84.84,0,0,1,.05.31c-.15,1.92,1.36,4.03,2.36,5.43.66.92.95,1.34.9,1.69-.11.94-2.8,4.45-5.94,5.03a2.592,2.592,0,0,1-.48.04m-4.08-12.73a11.362,11.362,0,0,1-.7,4.32,9.132,9.132,0,0,1-.8,1.25c-.32.44-.32.48-.28.54s.1.17.2.33c1.58,2.74,3.9,5.92,6,5.54,2.86-.53,5.24-3.76,5.35-4.38a6.813,6.813,0,0,0-.77-1.2c-1.06-1.48-2.67-3.73-2.49-5.91-.22-.43-3.22-.66-6.5-.49"
                    fill="#510394" />
                <path id="Path_29934" data-name="Path 29934"
                    d="M86.81,198.8c-2.19.98-.42,2.61-.88,4.09s-1.48,3.2-.38,5.82,7.01,2.34,12.36,2.41,13.22.35,14.2-1.97-4.01-3.87-4.92-4.92-5.37-4.27-6.32-5.43-3.97-2.77-4.56-.49.79,3.6,2.34,3.71c0,0-2.82,2.54-4.36,2.32s-1.54-3.2-2.43-3.34-1.1.59-2.28-.07-1.89-2.51-2.76-2.12"
                    fill="#00b2ca" />
            </g>
            <g id="shoes-2" data-name="shoes">
                <path id="Path_29935" data-name="Path 29935"
                    d="M61.63,196.41c-2.49.09-5.31,2.22-5.58,4.33s.23,11.01,1.58,11.82,5.57.92,6.87,0,2.17-6.36,1.95-9.54-2.06-6.71-4.81-6.61Z"
                    fill="#00b2ca" />
                <path id="Path_29936" data-name="Path 29936"
                    d="M59.02,197.24s-.28,3.88-.48,5.81,1.04,4.84,3.94,4.57,3.41-3.85,3.2-4.95c-.37-1.89-1.26-6.26-1.26-6.26l-5.4.83Z"
                    fill="#fff" />
                <path id="Path_29937" data-name="Path 29937"
                    d="M62.1,208a3.8,3.8,0,0,1-1.41-.27,3.566,3.566,0,0,1-1.19-.8,5.088,5.088,0,0,1-1.08-1.82,5.148,5.148,0,0,1-.25-2.1c.2-1.91.48-5.76.48-5.8a.321.321,0,0,1,.1-.22.36.36,0,0,1,.21-.11l5.4-.83a.362.362,0,0,1,.41.29c0,.04.89,4.39,1.26,6.26a5.765,5.765,0,0,1-1,3.95,3.359,3.359,0,0,1-1.1.99,3.415,3.415,0,0,1-1.42.44c-.14.01-.28.02-.41.02m-2.74-10.44c-.07.94-.29,3.92-.46,5.54a4.14,4.14,0,0,0,.21,1.78,4.222,4.222,0,0,0,.91,1.54,2.859,2.859,0,0,0,1.12.71,2.778,2.778,0,0,0,1.31.13,2.666,2.666,0,0,0,1.13-.35,2.747,2.747,0,0,0,.87-.79,5.135,5.135,0,0,0,.87-3.38c-.31-1.56-.97-4.85-1.19-5.92l-4.76.73Z"
                    fill="#510394" />
                <path id="Path_29938" data-name="Path 29938"
                    d="M62.01,203.76c-1.09,0-1.67,1.73-3.5,1.82s.83,3.44,3.36,3.35,5.65-3.62,3.55-3.6c-1.86.02-2.3-1.57-3.4-1.57"
                    fill="#00b2ca" />
            </g>
            <path id="legs"
                d="M52.82,105.63s-4.57,23.56-2.29,45.77,4.63,41.72,5.25,44.55,4.06,3.18,6.89,2.65,4.77-2.65,4.86-4.06,2.91-58.14,2.91-62.1,11.96,14.77,13.95,25.93,3.99,34.07,3.99,34.07a5.036,5.036,0,0,0,5.18,2.79c3.79-.4,6.78-2.39,6.78-4.58s1.4-37.26-1.59-46.83S85,107.55,81.22,104.56s-28.37,1.06-28.37,1.06"
                fill="#3a3e3f" />
            <g id="hand">
                <path id="Path_29939" data-name="Path 29939"
                    d="M55.38,87.78l-2.8,17.02c-1.14-1.35-3.85-4.57-4.32-5.4-.33-.67.63-6.79,1.78-12.46Z"
                    fill="#fff" />
                <path id="Path_29940" data-name="Path 29940"
                    d="M56.1,87.26a.879.879,0,0,0-.1-.1.579.579,0,0,0-.14-.05l-6.05-.94a.362.362,0,0,0-.41.29c-.58,2.83-2.41,12.18-1.77,13.3s4.74,5.91,4.91,6.11a.38.38,0,0,0,.13.09.365.365,0,0,0,.15.03h-.01a.594.594,0,0,0,.11-.01.425.425,0,0,0,.17-.1.663.663,0,0,0,.09-.19l2.98-18.16a.33.33,0,0,0,0-.14.223.223,0,0,0-.06-.13ZM48.26,99.4c-.33-.67.63-6.79,1.78-12.46l5.34.84-2.8,17.02C51.44,103.45,48.73,100.23,48.26,99.4Z"
                    fill="#510394" />
                <path id="Path_29941" data-name="Path 29941"
                    d="M120.59,75.33l1.02-.66-2.3,2.71a55.968,55.968,0,0,0-5.35,2.44,32.676,32.676,0,0,0-4.61,4.5c-4.01,4.27-10.07,10.72-13.16,11-1.84.16-4.4-1.75-7.39-5.53a58.336,58.336,0,0,1-3.91-5.68l4.53-3.62,6.6,7.16a.4.4,0,0,0,.23.12.442.442,0,0,0,.25-.06c.53-.37,13.04-8.86,14.43-11.5a32.474,32.474,0,0,1,4.47-5.58l-.74,1.97a.265.265,0,0,0,0,.23.3.3,0,0,0,.14.19.341.341,0,0,0,.22.07.337.337,0,0,0,.22-.09l4.26-3.63-1.35,2.31a.341.341,0,0,0-.05.24.355.355,0,0,0,.13.22.334.334,0,0,0,.23.09.358.358,0,0,0,.24-.09l3.34-2.84-2.44,3.66a.322.322,0,0,0-.06.23.313.313,0,0,0,.11.22.386.386,0,0,0,.22.11.5.5,0,0,0,.24-.06l2.07-1.43-2.07,2.78a.4.4,0,0,0-.07.24.366.366,0,0,0,.1.23.386.386,0,0,0,.22.11.335.335,0,0,0,.24-.06Z"
                    fill="#fff" />
                <path id="Path_29942" data-name="Path 29942"
                    d="M124.15,70.47a.369.369,0,0,0-.1-.24.384.384,0,0,0-.23-.11.42.42,0,0,0-.24.07l-2.33,1.6,2.84-4.26a.368.368,0,0,0,.05-.25.384.384,0,0,0-.11-.23.417.417,0,0,0-.24-.09.341.341,0,0,0-.24.09l-3.69,3.14,1.36-2.32a.354.354,0,0,0,.04-.25.3.3,0,0,0-.12-.21.358.358,0,0,0-.24-.09.334.334,0,0,0-.23.09l-4.82,4.11.86-2.27a.287.287,0,0,0,0-.24.37.37,0,0,0-.15-.2.387.387,0,0,0-.24-.05.321.321,0,0,0-.22.1c-.18.19-4.44,4.39-5.82,7-1.03,1.95-9.42,7.99-13.94,11.07l-6.63-7.18a.349.349,0,0,0-.24-.12.329.329,0,0,0-.25.08l-5.04,4.03a.342.342,0,0,0-.08.46c.28.5,6.89,11.85,11.86,11.85h.01c.1,0,.19-.01.28-.01,3.37-.31,9.3-6.62,13.63-11.23a36.492,36.492,0,0,1,4.43-4.36,55.806,55.806,0,0,1,5.35-2.42.56.56,0,0,0,.15-.1l3.96-4.68a.407.407,0,0,0,.08-.24.358.358,0,0,0-.09-.24.432.432,0,0,0-.22-.12.317.317,0,0,0-.25.06l-1.38.9,2.16-2.9a.356.356,0,0,0,.07-.24Zm-4.05,4.34a.4.4,0,0,0-.07.24.366.366,0,0,0,.1.23.386.386,0,0,0,.22.11.335.335,0,0,0,.24-.06l1.02-.66-2.3,2.71a55.968,55.968,0,0,0-5.35,2.44,32.676,32.676,0,0,0-4.61,4.5c-4.01,4.27-10.07,10.72-13.16,11-1.84.16-4.4-1.75-7.39-5.53a58.336,58.336,0,0,1-3.91-5.68l4.53-3.62,6.6,7.16a.4.4,0,0,0,.23.12.442.442,0,0,0,.25-.06c.53-.37,13.04-8.86,14.43-11.5a32.474,32.474,0,0,1,4.47-5.58l-.74,1.97a.265.265,0,0,0,0,.23.3.3,0,0,0,.14.19.341.341,0,0,0,.22.07.337.337,0,0,0,.22-.09l4.26-3.63-1.35,2.31a.341.341,0,0,0-.05.24.355.355,0,0,0,.13.22.334.334,0,0,0,.23.09.358.358,0,0,0,.24-.09l3.34-2.84-2.44,3.66a.322.322,0,0,0-.06.23.313.313,0,0,0,.11.22.386.386,0,0,0,.22.11.5.5,0,0,0,.24-.06l2.07-1.43-2.07,2.78Z"
                    fill="#510394" />
            </g>
            <g id="Group_6101" data-name="Group 6101">
                <path id="Path_29943" data-name="Path 29943"
                    d="M70.74,63.85a4.693,4.693,0,0,1-2.82.78,8.184,8.184,0,0,1-2.74-.29c.05-.28.17-.87.33-1.64,1.34-.13,1.83-.76,2.31-2.42a3.612,3.612,0,0,0,.93.02h0c.71.01,1.38-.04,1.59-.05Z"
                    fill="#fff" />
                <path id="Path_29944" data-name="Path 29944"
                    d="M75.32,51.57c-.07-.2-.14-.35-.16-.43a1.819,1.819,0,0,1,.19-1.23c.07-.2.16-.42.23-.68.16-.5-.27-1.15-2.86-2.63-.37-.22-.75-.43-1.11-.62.19-1.9-.16-3.59-1.57-4.41-4.11-2.39-7.21,2.67-11.37,5.05s-2.98,11.35-.89,12.11,4.56,3.96,6.9,4h.08c-.2.96-.33,1.65-.33,1.73,0,.22,0,.9,3.49.9a4.971,4.971,0,0,0,3.47-1.1.468.468,0,0,0,.08-.14.415.415,0,0,0,.02-.16l-.42-3.77a13.656,13.656,0,0,0,4.25-1.18c2.39-1.34.65-5.77,0-7.44Zm-7.4,13.06a8.184,8.184,0,0,1-2.74-.29c.05-.28.17-.87.33-1.64,1.34-.13,1.83-.76,2.31-2.42a3.612,3.612,0,0,0,.93.02h0c.71.01,1.38-.04,1.59-.05l.4,3.6A4.693,4.693,0,0,1,67.92,64.63Zm7.04-6.25a11.125,11.125,0,0,1-3.97,1.07c-.12.01-.25.03-.37.03-.12.02-.24.03-.36.04a16.034,16.034,0,0,1-2.25.04,2.474,2.474,0,0,1-.72-.11,6,6,0,0,1-.79-1.21.138.138,0,0,0-.03-.04.374.374,0,0,0-.13-.12.361.361,0,0,0-.21-.04h-.01c-.1.01-.23.02-.37.02-.77.02-2.06-.1-2.27-.74a1.823,1.823,0,0,1,.22-1.69c.06-.06.16-.15.26-.13a.84.84,0,0,1,.45.38c.16.21.45.59.92.4a.567.567,0,0,0,.18-.12.544.544,0,0,0,.11-.18c.11-.3-.07-.64-.27-1.04a3.417,3.417,0,0,1-.26-.59,2.775,2.775,0,0,1,.28-.18c1.19-.77,4.28-2.75,4.61-8.23.51.26,1.03.53,1.53.8,1.75.96,3.23,1.92,3.36,2.31a5.26,5.26,0,0,1-.2.6,2.425,2.425,0,0,0-.21,1.71q.06.15.18.48c.54,1.36,2.16,5.51.32,6.54Z"
                    fill="#510394" />
                <path id="Path_29945" data-name="Path 29945"
                    d="M74.96,58.38a11.125,11.125,0,0,1-3.97,1.07c-.12.01-.25.03-.37.03-.12.02-.24.03-.36.04a16.034,16.034,0,0,1-2.25.04,2.474,2.474,0,0,1-.72-.11,6,6,0,0,1-.79-1.21.138.138,0,0,0-.03-.04.374.374,0,0,0-.13-.12.361.361,0,0,0-.21-.04h-.01c-.1.01-.23.02-.37.02-.77.02-2.06-.1-2.27-.74a1.823,1.823,0,0,1,.22-1.69c.06-.06.16-.15.26-.13a.84.84,0,0,1,.45.38c.16.21.45.59.92.4a.567.567,0,0,0,.18-.12.544.544,0,0,0,.11-.18c.11-.3-.07-.64-.27-1.04a3.417,3.417,0,0,1-.26-.59,2.775,2.775,0,0,1,.28-.18c1.19-.77,4.28-2.75,4.61-8.23.51.26,1.03.53,1.53.8,1.75.96,3.23,1.92,3.36,2.31a5.26,5.26,0,0,1-.2.6,2.425,2.425,0,0,0-.21,1.71q.06.15.18.48c.54,1.36,2.16,5.51.32,6.54Z"
                    fill="#fff" />
            </g>
            <path id="shirt"
                d="M64.79,64.46c-7.12.86-11.56,7.78-14.76,14.97s-3.8,7.2-3.2,8.3,5.6,2.4,6.3,1.9c0,0-1.6,13.09-2.1,16.69s5.37,5.9,16.92,5.2,15.75-1.5,16.95-6.3S81.7,86.23,82,86.23s3.1,1.2,6.7-2.2,2.7-5.7,2.7-5.7-3.67-4.34-5.5-6.6c-4.15-5.14-8.45-8.19-14.79-7.74l-6.33.46Z"
                fill="#00b2ca" />
        </g>
    </g>
</svg>
