<svg xmlns="http://www.w3.org/2000/svg" width="339.005" height="193.253" viewBox="0 0 339.005 193.253">
    <defs>
        <linearGradient id="linear-gradient" y1="0.5" x2="1" y2="0.5"
            gradientUnits="objectBoundingBox">
            <stop offset="0" stop-color="#d3d6db" />
            <stop offset="1" stop-color="#7a869b" />
        </linearGradient>
    </defs>
    <g id="onbo_c" transform="translate(0.01 0.01)">
        <path id="shad"
            d="M29.78,176.76c-5.73.82-15.03,2.32-15.09,4.47-.05,1.95,7.44,3.54,10.06,4.1,29.99,6.38,36.51-4.32,76.19.3,20.81,2.42,17.67,6.44,36.13,7.46,25.25,1.38,63.75-7.02,95.32-6.64,13.47.16,13.68,1.52,32.01,2.61,7.2.43,57.64,3.35,58.54-1.12.16-.81-1.05-3.06-22.87-8.57,0,0-104.14-26.31-270.29-2.61"
            fill="url(#linear-gradient)" />
        <g id="Seating">
            <path id="Path_29799" data-name="Path 29799"
                d="M254.46,174.43H186.13V137.19s-.79-11.72,34.16-11.72,34.16,11.72,34.16,11.72v37.24Z"
                fill="#ffac00" />
            <path id="Path_29800" data-name="Path 29800"
                d="M252.04,170.05a3.888,3.888,0,0,0-1.54-.31H190.07a3.95,3.95,0,0,0,0,7.9h2.18v3.98h6.38v-3.97h43.32v3.98h6.38v-3.98h2.18a4,4,0,0,0,2.5-.89,3.948,3.948,0,0,0-.96-6.69"
                fill="#ff7f00" />
            <path id="Path_29801" data-name="Path 29801"
                d="M126.69,174.43H58.36V137.19s-.79-11.72,34.16-11.72,34.16,11.72,34.16,11.72v37.24Z"
                fill="#ffac00" />
            <path id="Path_29802" data-name="Path 29802"
                d="M124.28,170.05a3.888,3.888,0,0,0-1.54-.31H62.31a3.95,3.95,0,0,0,0,7.9h2.18v3.98h6.38v-3.97h43.32v3.98h6.38v-3.98h2.18a4,4,0,0,0,2.5-.89,3.948,3.948,0,0,0-.96-6.69"
                fill="#ff7f00" />
        </g>
        <g id="Floating_object" data-name="Floating object">
            <path id="Path_29803" data-name="Path 29803"
                d="M322.8,71.91H234.12a5.753,5.753,0,0,1-5.75-5.76V21.71a5.753,5.753,0,0,1,5.75-5.76H322.8a5.753,5.753,0,0,1,5.75,5.76V66.15a5.77,5.77,0,0,1-1.69,4.07,5.9,5.9,0,0,1-1.87,1.25,5.759,5.759,0,0,1-2.2.44"
                fill="#fff" opacity="0.5" />
            <path id="Path_29804" data-name="Path 29804"
                d="M212.54,87.86H116.15a5.77,5.77,0,0,1-4.07-1.69,5.77,5.77,0,0,1-1.69-4.07V5.75a5.77,5.77,0,0,1,5.76-5.76h96.39a5.77,5.77,0,0,1,4.07,1.69,5.77,5.77,0,0,1,1.69,4.07V82.11a5.77,5.77,0,0,1-1.69,4.07,5.77,5.77,0,0,1-4.07,1.69"
                fill="#fff" opacity="0.5" />
            <path id="Path_29805" data-name="Path 29805"
                d="M204.11,63.16H124.59a1.263,1.263,0,0,1-1.26-1.26V60.44a1.24,1.24,0,0,1,.37-.89,1.257,1.257,0,0,1,.89-.37h79.52a1.263,1.263,0,0,1,1.26,1.26v1.47a1.24,1.24,0,0,1-.37.89,1.257,1.257,0,0,1-.89.37"
                fill="#bb88fc" />
            <path id="Path_29806" data-name="Path 29806"
                d="M170.95,73.75H124.58a1.263,1.263,0,0,1-1.26-1.26V71.02a1.24,1.24,0,0,1,.37-.89,1.257,1.257,0,0,1,.89-.37h46.37a1.263,1.263,0,0,1,1.26,1.26v1.47a1.24,1.24,0,0,1-.37.89,1.257,1.257,0,0,1-.89.37"
                fill="#bb88fc" />
            <path id="Path_29807" data-name="Path 29807"
                d="M130.43,46.35a3.541,3.541,0,0,1-.6,1.97,3.6,3.6,0,0,1-1.6,1.31,3.51,3.51,0,0,1-2.05.2,3.635,3.635,0,0,1-1.82-.97,3.487,3.487,0,0,1-.97-1.82,3.556,3.556,0,0,1,1.51-3.65,3.548,3.548,0,0,1,5.52,2.95Z"
                fill="#bb88fc" />
            <path id="Path_29808" data-name="Path 29808"
                d="M148.65,46.35a3.541,3.541,0,0,1-.6,1.97,3.6,3.6,0,0,1-1.6,1.31,3.51,3.51,0,0,1-2.05.2,3.635,3.635,0,0,1-1.82-.97,3.563,3.563,0,0,1-.77-3.87,3.587,3.587,0,0,1,1.31-1.6,3.548,3.548,0,0,1,5.52,2.95Z"
                fill="#bb88fc" />
            <path id="Path_29809" data-name="Path 29809"
                d="M190.79,29.27h-3a1.083,1.083,0,0,1-.76-.31,1.07,1.07,0,0,1,.76-1.83h2.17l2.73-10.8-2.75-1.32a1.072,1.072,0,0,1-.35-.25,1.028,1.028,0,0,1-.22-.36,1.2,1.2,0,0,1-.07-.42.869.869,0,0,1,.11-.41,1.2,1.2,0,0,1,.25-.34,1.046,1.046,0,0,1,.37-.21.993.993,0,0,1,.42-.05,1.19,1.19,0,0,1,.41.11l3.54,1.7a1.144,1.144,0,0,1,.51.51,1.112,1.112,0,0,1,.07.72l-3.15,12.46a1.044,1.044,0,0,1-.38.58,1.06,1.06,0,0,1-.66.23"
                fill="#bb88fc" />
            <path id="Path_29810" data-name="Path 29810"
                d="M193.71,49.41a13.165,13.165,0,0,1-2.08-.17.933.933,0,0,1-.39-.15,1.177,1.177,0,0,1-.31-.28,1.085,1.085,0,0,1-.19-.8,1.066,1.066,0,0,1,.43-.7,1.041,1.041,0,0,1,.8-.19,8.052,8.052,0,0,0,7.52-2.26c-2.24-1.66-7.51-6.49-9.74-16.43a1.082,1.082,0,0,1,.15-.8,1.075,1.075,0,0,1,1.47-.32,1.085,1.085,0,0,1,.48.65,28.727,28.727,0,0,0,5.83,12.23,16.5,16.5,0,0,0,3.88,3.48,1.061,1.061,0,0,1,.32.28,1.046,1.046,0,0,1,.19.38,1,1,0,0,1,.03.42,1.107,1.107,0,0,1-.13.4,9.542,9.542,0,0,1-8.24,4.26"
                fill="#bb88fc" />
            <path id="Path_29811" data-name="Path 29811"
                d="M183.3,29.27h-3a1.06,1.06,0,0,1-.66-.23,1.079,1.079,0,0,1-.38-.58L176.11,16a1.07,1.07,0,0,1,.58-1.23l3.54-1.7a1.129,1.129,0,0,1,.81-.03,1.1,1.1,0,0,1,.6.54,1.081,1.081,0,0,1,.05.81,1.064,1.064,0,0,1-.53.61l-2.75,1.31,2.73,10.8h2.17a1.057,1.057,0,0,1,.74.33,1.087,1.087,0,0,1,0,1.5,1.081,1.081,0,0,1-.74.33"
                fill="#bb88fc" />
            <path id="Path_29812" data-name="Path 29812"
                d="M170.06,45.69a1.032,1.032,0,0,1-.65-.23,1.054,1.054,0,0,1-.38-.57,1.095,1.095,0,0,1,.5-1.21,16.5,16.5,0,0,0,3.88-3.48,28.161,28.161,0,0,0,5.83-12.23,1.008,1.008,0,0,1,.17-.38,1.037,1.037,0,0,1,.3-.29.933.933,0,0,1,.39-.15,1.477,1.477,0,0,1,.42,0,.875.875,0,0,1,.38.17,1.184,1.184,0,0,1,.29.3,1.091,1.091,0,0,1,.15.39,1.186,1.186,0,0,1-.01.42c-2.8,12.52-10.43,16.93-10.75,17.12a1.067,1.067,0,0,1-.52.14"
                fill="#bb88fc" />
            <path id="Path_29813" data-name="Path 29813"
                d="M185.54,19.35a5.968,5.968,0,0,1-5.89-4.95,1.039,1.039,0,0,1,0-.43,1.11,1.11,0,0,1,.16-.39.988.988,0,0,1,.31-.3,1.073,1.073,0,0,1,.83-.15.99.99,0,0,1,.39.18,1.073,1.073,0,0,1,.29.31,1.123,1.123,0,0,1,.14.4,3.831,3.831,0,0,0,3.85,3.16,3.837,3.837,0,0,0,3.73-3.31,1.1,1.1,0,0,1,.41-.71,1.073,1.073,0,0,1,.79-.21,1.1,1.1,0,0,1,.71.41,1.061,1.061,0,0,1,.21.79,6.007,6.007,0,0,1-5.93,5.17"
                fill="#bb88fc" />
            <path id="Path_29814" data-name="Path 29814"
                d="M178.22,49.9a10.8,10.8,0,0,1-5.3-1.38,11.678,11.678,0,0,1-3.75-3.31,1.11,1.11,0,0,1-.16-.39.991.991,0,0,1,0-.42,1.11,1.11,0,0,1,.16-.39,1.071,1.071,0,0,1,.3-.3,1.11,1.11,0,0,1,.39-.16.991.991,0,0,1,.42,0,1.11,1.11,0,0,1,.39.16,1.071,1.071,0,0,1,.3.3c.17.26,4.24,6.08,11.91,2.66a.99.99,0,0,1,.41-.1,1.471,1.471,0,0,1,.42.06,1.2,1.2,0,0,1,.36.22,1.243,1.243,0,0,1,.25.35.978.978,0,0,1,.09.41,1.013,1.013,0,0,1-.08.42,1.16,1.16,0,0,1-.23.36,1.211,1.211,0,0,1-.35.24,13.331,13.331,0,0,1-5.51,1.26"
                fill="#bb88fc" />
            <path id="Path_29815" data-name="Path 29815"
                d="M185.8,48.88a.924.924,0,0,1-.29-.04c-.81-.23-4.91-1.43-6.21-2.47a1.218,1.218,0,0,1-.28-.32.944.944,0,0,1-.13-.4,1.178,1.178,0,0,1,.03-.42,1.046,1.046,0,0,1,.19-.38,1.087,1.087,0,0,1,.33-.27.974.974,0,0,1,.41-.12,1.179,1.179,0,0,1,.42.04.913.913,0,0,1,.37.21,25.322,25.322,0,0,0,5.45,2.08,1.075,1.075,0,0,1,.76,1.18,1.126,1.126,0,0,1-.35.66,1.108,1.108,0,0,1-.7.27"
                fill="#bb88fc" />
            <path id="Path_29816" data-name="Path 29816"
                d="M94.43,71.9H5.75A5.77,5.77,0,0,1-.01,66.14V21.71a5.753,5.753,0,0,1,5.76-5.75H94.43a5.77,5.77,0,0,1,5.76,5.76V66.16a5.77,5.77,0,0,1-5.76,5.76Z"
                fill="#fff" opacity="0.5" />
            <path id="Path_29817" data-name="Path 29817"
                d="M86.92,34.1H57.07a1.24,1.24,0,0,1-.89-.37,1.3,1.3,0,0,1-.37-.89V31.66a1.24,1.24,0,0,1,.37-.89,1.257,1.257,0,0,1,.89-.37H86.92a1.3,1.3,0,0,1,.89.37,1.257,1.257,0,0,1,.37.89v1.18a1.24,1.24,0,0,1-.37.89,1.257,1.257,0,0,1-.89.37"
                fill="#bb88fc" />
            <path id="Path_29818" data-name="Path 29818"
                d="M73.84,43.93H57.08a1.24,1.24,0,0,1-.89-.37,1.257,1.257,0,0,1-.37-.89V41.49a1.24,1.24,0,0,1,.37-.89,1.257,1.257,0,0,1,.89-.37H73.85a1.24,1.24,0,0,1,.89.37,1.257,1.257,0,0,1,.37.89v1.18a1.24,1.24,0,0,1-.37.89,1.257,1.257,0,0,1-.89.37"
                fill="#bb88fc" />
            <path id="Path_29819" data-name="Path 29819"
                d="M32.25,41.93H29.46a.994.994,0,0,1-.64-1.66,1.011,1.011,0,0,1,.64-.32h2.01l2.54-10.03L31.45,28.7a1,1,0,0,1,.14-1.78,1.048,1.048,0,0,1,.72-.02l3.29,1.58a1,1,0,0,1,.47.48,1.028,1.028,0,0,1,.07.67L33.21,41.2a1.083,1.083,0,0,1-.35.54.961.961,0,0,1-.61.21"
                fill="#bb88fc" />
            <path id="Path_29820" data-name="Path 29820"
                d="M34.96,60.62a11.456,11.456,0,0,1-1.94-.16.963.963,0,0,1-.37-.13.994.994,0,0,1-.46-.62,1.027,1.027,0,0,1-.02-.39.979.979,0,0,1,.14-.37,1.062,1.062,0,0,1,.27-.29.971.971,0,0,1,.36-.16.856.856,0,0,1,.39,0,7.375,7.375,0,0,0,3.76-.14,7.583,7.583,0,0,0,3.22-1.95c-2.08-1.54-6.98-6.02-9.04-15.26a1.024,1.024,0,0,1-.01-.39,1.046,1.046,0,0,1,.14-.37.9.9,0,0,1,.27-.28.971.971,0,0,1,.36-.16.856.856,0,0,1,.39,0,.934.934,0,0,1,.36.14.9.9,0,0,1,.28.27.952.952,0,0,1,.15.36,26.612,26.612,0,0,0,5.42,11.36,15.388,15.388,0,0,0,3.6,3.23,1,1,0,0,1,.37,1.37,8.83,8.83,0,0,1-7.65,3.95"
                fill="#bb88fc" />
            <path id="Path_29821" data-name="Path 29821"
                d="M25.29,41.93H22.5a.988.988,0,0,1-.96-.75L18.61,29.61a.974.974,0,0,1,.07-.67,1,1,0,0,1,.47-.48l3.29-1.58a.977.977,0,0,1,.75-.03,1.054,1.054,0,0,1,.56.5,1.022,1.022,0,0,1,.05.75.986.986,0,0,1-.49.57l-2.56,1.22,2.54,10.03H25.3a.994.994,0,0,1,.64,1.66,1.011,1.011,0,0,1-.64.32Z"
                fill="#bb88fc" />
            <path id="Path_29822" data-name="Path 29822"
                d="M13,57.17a.981.981,0,0,1-.61-.21.959.959,0,0,1-.35-.53.942.942,0,0,1,.05-.64,1.054,1.054,0,0,1,.43-.48,15.613,15.613,0,0,0,3.6-3.23,26.274,26.274,0,0,0,5.42-11.36,1.145,1.145,0,0,1,.15-.36.9.9,0,0,1,.28-.27.934.934,0,0,1,.36-.14,1.275,1.275,0,0,1,.39,0,.971.971,0,0,1,.36.16,1.026,1.026,0,0,1,.27.28.979.979,0,0,1,.14.37,1.024,1.024,0,0,1-.01.39c-2.6,11.63-9.69,15.72-9.99,15.89a1.054,1.054,0,0,1-.49.13"
                fill="#bb88fc" />
            <path id="Path_29823" data-name="Path 29823"
                d="M27.37,32.71a5.556,5.556,0,0,1-5.47-4.59,1.023,1.023,0,0,1,0-.39,1.145,1.145,0,0,1,.15-.36.9.9,0,0,1,.28-.27.979.979,0,0,1,.37-.14,1.024,1.024,0,0,1,.39.01.971.971,0,0,1,.36.16,1.062,1.062,0,0,1,.27.29.979.979,0,0,1,.14.37,3.582,3.582,0,0,0,1.24,2.13,3.56,3.56,0,0,0,5.79-2.27.988.988,0,0,1,.41-.59,1.01,1.01,0,0,1,.7-.17,1,1,0,0,1,.86,1.03,5.554,5.554,0,0,1-5.5,4.8"
                fill="#bb88fc" />
            <path id="Path_29824" data-name="Path 29824"
                d="M20.57,61.08a10.15,10.15,0,0,1-4.93-1.28,10.8,10.8,0,0,1-3.48-3.07.981.981,0,0,1-.11-.73,1.018,1.018,0,0,1,.42-.61,1,1,0,0,1,1.35.24c.16.24,3.93,5.65,11.06,2.47a.989.989,0,0,1,.8-.09.946.946,0,0,1,.36.21.915.915,0,0,1,.24.34.978.978,0,0,1,.09.41,1.15,1.15,0,0,1-.08.41,1.164,1.164,0,0,1-.24.34,1,1,0,0,1-.36.21,12.407,12.407,0,0,1-5.12,1.17"
                fill="#bb88fc" />
            <path id="Path_29825" data-name="Path 29825"
                d="M27.61,60.13a.842.842,0,0,1-.27-.04c-.75-.21-4.56-1.32-5.77-2.29a1.084,1.084,0,0,1-.26-.3.809.809,0,0,1-.12-.37,1.032,1.032,0,0,1,.03-.39,1.056,1.056,0,0,1,.18-.35,1.027,1.027,0,0,1,.3-.25,1.13,1.13,0,0,1,.38-.12,1.039,1.039,0,0,1,.39.04,1,1,0,0,1,.35.19,23.675,23.675,0,0,0,5.06,1.93.982.982,0,0,1,.54.42.937.937,0,0,1,.14.67,1.04,1.04,0,0,1-.32.61.993.993,0,0,1-.64.26"
                fill="#bb88fc" />
            <path id="Path_29826" data-name="Path 29826"
                d="M315.28,34.1H285.43a1.24,1.24,0,0,1-.89-.37,1.257,1.257,0,0,1-.37-.89V31.66a1.24,1.24,0,0,1,.37-.89,1.257,1.257,0,0,1,.89-.37h29.85a1.24,1.24,0,0,1,.89.37,1.257,1.257,0,0,1,.37.89v1.18a1.24,1.24,0,0,1-.37.89A1.257,1.257,0,0,1,315.28,34.1Z"
                fill="#bb88fc" />
            <path id="Path_29827" data-name="Path 29827"
                d="M302.2,43.93H285.43a1.24,1.24,0,0,1-.89-.37,1.257,1.257,0,0,1-.37-.89V41.49a1.24,1.24,0,0,1,.37-.89,1.257,1.257,0,0,1,.89-.37H302.2a1.263,1.263,0,0,1,1.26,1.26v1.18a1.24,1.24,0,0,1-.37.89A1.257,1.257,0,0,1,302.2,43.93Z"
                fill="#bb88fc" />
            <path id="Path_29828" data-name="Path 29828"
                d="M260.61,41.93h-2.79a.994.994,0,0,1-.64-1.66.988.988,0,0,1,.64-.32h2.01l2.54-10.03-2.56-1.22a.986.986,0,0,1-.49-.57.975.975,0,0,1,.05-.75.954.954,0,0,1,.56-.5.977.977,0,0,1,.75.03l3.29,1.58a1,1,0,0,1,.47.48,1.028,1.028,0,0,1,.07.67l-2.93,11.57a1.021,1.021,0,0,1-.35.54.961.961,0,0,1-.61.21Z"
                fill="#bb88fc" />
            <path id="Path_29829" data-name="Path 29829"
                d="M263.33,60.62a11.339,11.339,0,0,1-1.93-.16.963.963,0,0,1-.37-.13,1.2,1.2,0,0,1-.29-.26.993.993,0,0,1-.17-.36,1.027,1.027,0,0,1-.02-.39.979.979,0,0,1,.14-.37,1.062,1.062,0,0,1,.27-.29.971.971,0,0,1,.36-.16.856.856,0,0,1,.39,0,7.375,7.375,0,0,0,3.76-.14,7.583,7.583,0,0,0,3.22-1.95c-2.08-1.54-6.98-6.02-9.04-15.26a.979.979,0,0,1,.18-.7,1.04,1.04,0,0,1,.6-.4,1.012,1.012,0,0,1,1.17.67,26.612,26.612,0,0,0,5.42,11.36,15.388,15.388,0,0,0,3.6,3.23,1.006,1.006,0,0,1,.47.6.963.963,0,0,1-.1.76,8.83,8.83,0,0,1-7.65,3.95"
                fill="#bb88fc" />
            <path id="Path_29830" data-name="Path 29830"
                d="M253.66,41.93h-2.79a.961.961,0,0,1-.61-.21,1.021,1.021,0,0,1-.35-.54l-2.93-11.57a1.035,1.035,0,0,1,.07-.67,1,1,0,0,1,.47-.48l3.29-1.58a1,1,0,0,1,.86,1.8l-2.56,1.22,2.54,10.03h2.01a1.124,1.124,0,0,1,.41.04.877.877,0,0,1,.36.21.915.915,0,0,1,.24.34.979.979,0,0,1,0,.82.98.98,0,0,1-.6.55.943.943,0,0,1-.41.04"
                fill="#bb88fc" />
            <path id="Path_29831" data-name="Path 29831"
                d="M241.36,57.17a.994.994,0,0,1-.6-.21,1.015,1.015,0,0,1-.35-.53.986.986,0,0,1,.46-1.11,15.388,15.388,0,0,0,3.6-3.23,26.274,26.274,0,0,0,5.42-11.36,1.017,1.017,0,0,1,.46-.56,1.038,1.038,0,0,1,.71-.11,1,1,0,0,1,.6.4,1.016,1.016,0,0,1,.18.7c-2.6,11.63-9.69,15.72-9.99,15.89a1.054,1.054,0,0,1-.49.13"
                fill="#bb88fc" />
            <path id="Path_29832" data-name="Path 29832"
                d="M255.74,32.71a5.556,5.556,0,0,1-5.47-4.59,1.275,1.275,0,0,1,0-.39,1.145,1.145,0,0,1,.15-.36.9.9,0,0,1,.28-.27.979.979,0,0,1,.37-.14,1.024,1.024,0,0,1,.39.01.971.971,0,0,1,.36.16,1.062,1.062,0,0,1,.27.29.963.963,0,0,1,.13.37,3.582,3.582,0,0,0,1.24,2.13,3.523,3.523,0,0,0,2.33.81,3.558,3.558,0,0,0,3.46-3.08.988.988,0,0,1,.41-.59,1.01,1.01,0,0,1,.7-.17,1,1,0,0,1,.86,1.03,5.554,5.554,0,0,1-5.5,4.8"
                fill="#bb88fc" />
            <path id="Path_29833" data-name="Path 29833"
                d="M248.94,61.08a10.15,10.15,0,0,1-4.93-1.28,10.8,10.8,0,0,1-3.48-3.07,1.026,1.026,0,0,1-.08-.71,1,1,0,0,1,1.11-.74.955.955,0,0,1,.62.35c.16.24,3.93,5.65,11.06,2.47a1.107,1.107,0,0,1,.4-.13,1.124,1.124,0,0,1,.41.04.946.946,0,0,1,.36.21.915.915,0,0,1,.24.34.978.978,0,0,1,.09.41,1.15,1.15,0,0,1-.08.41,1.164,1.164,0,0,1-.24.34,1,1,0,0,1-.36.21,12.408,12.408,0,0,1-5.12,1.17"
                fill="#bb88fc" />
            <path id="Path_29834" data-name="Path 29834"
                d="M255.98,60.13a.842.842,0,0,1-.27-.04c-.75-.21-4.56-1.32-5.76-2.29a1.084,1.084,0,0,1-.26-.3.809.809,0,0,1-.12-.37,1.032,1.032,0,0,1,.03-.39,1.057,1.057,0,0,1,.18-.35,1.027,1.027,0,0,1,.3-.25,1.207,1.207,0,0,1,.38-.12,1.039,1.039,0,0,1,.39.04,1,1,0,0,1,.35.19,23.475,23.475,0,0,0,5.06,1.93.982.982,0,0,1,.54.42.938.938,0,0,1,.14.67,1.04,1.04,0,0,1-.32.61.993.993,0,0,1-.64.26"
                fill="#bb88fc" />
        </g>
        <g id="tree">
            <path id="Path_29835" data-name="Path 29835"
                d="M304.53,183.81h-24.7a1.649,1.649,0,0,1-1.08-.41,1.593,1.593,0,0,1-.53-1.03l-3.9-34.28h35.72l-3.9,34.28a1.593,1.593,0,0,1-.53,1.03,1.649,1.649,0,0,1-1.08.41"
                fill="#00b2ca" />
            <path id="Path_29836" data-name="Path 29836"
                d="M310.04,148.5c0,1.12-8,2.03-17.86,2.03s-17.86-.91-17.86-2.03,8-2.03,17.86-2.03,17.86.91,17.86,2.03Z"
                fill="#1c2b6b" />
            <path id="Path_29837" data-name="Path 29837"
                d="M290.56,82.33c-9.74.81-6.5,30.04-6.5,30.04,2.44,25.17,5.68,36.53,8.12,37.35s7.31-35.72,7.31-44.65c0,0,.81-23.54-8.93-22.73"
                fill="#1e3286" />
            <path id="Path_29838" data-name="Path 29838"
                d="M291.77,145.65a.508.508,0,0,1-.17-.03.451.451,0,0,1-.14-.1.275.275,0,0,1-.08-.15.329.329,0,0,1-.01-.17c3.2-26.44-.77-59.65-.81-59.98a.436.436,0,0,1,.09-.29.461.461,0,0,1,.26-.15.381.381,0,0,1,.29.08.416.416,0,0,1,.16.26c.04.33,4.03,33.64.81,60.18a.432.432,0,0,1-.13.26.378.378,0,0,1-.27.1"
                fill="#fff" />
            <path id="Path_29839" data-name="Path 29839"
                d="M261.32,68.53c-.81,4.06,4.06,4.87,4.87,10.55s-1.62,7.31-.81,10.55,5.68,4.06,6.5,12.18-2.44,7.31-1.62,12.18,5.68,4.87,6.49,8.93.81,9.74,2.44,14.61,6.49,12.18,8.93,12.18,8.93-13.8,7.31-17.86-4.06-4.87-4.06-8.12,3.25-11.37,2.44-17.05-8.12-8.12-8.93-12.18,1.62-14.61-4.06-19.49-18.67-10.55-19.49-6.49"
                fill="#fa6e53" />
            <path id="Path_29840" data-name="Path 29840"
                d="M338.45,77.46c2.87,2.87-6.49,4.06-7.31,9.74s-.81,8.12-4.06,11.37-8.12,4.06-7.31,8.93,2.44,9.74,0,12.18-8.12,2.44-9.74,6.5-.81,8.93-4.06,12.99-8.12,12.18-12.18,10.55-1.62-20.3,0-23.54,3.25-5.68,3.25-8.12-.81-6.49.81-10.55,10.55-5.68,11.37-8.12,1.62-15.43,6.49-18.67,17.86-8.12,22.73-3.25Z"
                fill="#40cd8a" />
            <path id="Path_29841" data-name="Path 29841"
                d="M295.06,148.32a.361.361,0,0,1-.2-.06.536.536,0,0,1-.15-.15.364.364,0,0,1-.05-.21.36.36,0,0,1,.06-.2c.03-.06,3.28-5.49,3.97-8.24.18-.71.39-1.78.64-3.02.9-4.51,2.25-11.32,4.34-13.4,3.03-3.03,7.87-12.31,11.26-24.18,4.18-14.63,18-18.91,18.14-18.95a.292.292,0,0,1,.16-.01.3.3,0,0,1,.15.05.4.4,0,0,1,.12.1.637.637,0,0,1,.08.14.42.42,0,0,1,.01.16.3.3,0,0,1-.05.15.294.294,0,0,1-.1.12.369.369,0,0,1-.14.07c-.14.04-13.53,4.2-17.59,18.4-3.43,12.01-8.37,21.43-11.47,24.53-1.91,1.91-3.29,8.85-4.12,12.99-.25,1.25-.46,2.33-.65,3.06-.72,2.87-3.93,8.23-4.06,8.46a.536.536,0,0,1-.15.15.351.351,0,0,1-.2.05"
                fill="#fff" />
            <path id="Path_29842" data-name="Path 29842"
                d="M288.08,146.54a.4.4,0,0,1-.29-.12.378.378,0,0,1-.12-.28c0-.11-.07-10.65-3.16-13.75-2.55-2.34-2.71-9.76-5.8-31.12-.8-16.7-12.77-30.47-12.89-30.6a.392.392,0,0,1-.08-.14.415.415,0,0,1-.02-.16.37.37,0,0,1,.04-.15.412.412,0,0,1,.1-.13.392.392,0,0,1,.14-.08.44.44,0,0,1,.16-.02.371.371,0,0,1,.15.04.413.413,0,0,1,.13.1c.12.14,12.28,14.11,13.09,31.1.85,17.92,2.62,27.64,5.57,30.58,3.33,3.33,3.4,13.87,3.4,14.32a.4.4,0,0,1-.12.29.4.4,0,0,1-.28.12h0Z"
                fill="#fff" />
        </g>
        <g id="person_1" data-name="person 1">
            <path id="Path_29843" data-name="Path 29843"
                d="M172.4,176.9s-7.87,5.48-7.28,6.47,6.21,3.96,8.88,2.11,4.7-7.27,4.7-7.27l-1.59,6.63,2.08.19s-.21-4.65.91-5.89,3.36-2.67,2.45-4.73-2.07-6.15-3.47-5.19-6.69,7.67-6.69,7.67"
                fill="#510394" />
            <path id="Path_29844" data-name="Path 29844"
                d="M173.74,162.5s-.19,6.79-.71,8.25-5.54,10.69-5.54,10.69,8.8-4.31,10.38-6.89,2.49-4.87,1.2-5.32-.41-5.36-.41-5.36l-4.93-1.36Z"
                fill="#fff" />
            <path id="Path_29845" data-name="Path 29845"
                d="M167.49,181.79a.329.329,0,0,1-.17-.04.278.278,0,0,1-.12-.12.337.337,0,0,1-.05-.17.329.329,0,0,1,.04-.17c.05-.09,5.01-9.23,5.51-10.64.4-1.11.62-5.82.69-8.15a.282.282,0,0,1,.04-.15.4.4,0,0,1,.1-.12.35.35,0,0,1,.14-.06h.15l4.93,1.36a.328.328,0,0,1,.2.15.4.4,0,0,1,.05.24c-.4,2.23-.42,4.77.19,4.98a1.215,1.215,0,0,1,.46.28,1.164,1.164,0,0,1,.29.46c.33.93-.25,2.6-1.77,5.08-1.61,2.63-10.16,6.84-10.52,7.02a.419.419,0,0,1-.15.04Zm6.58-18.84c-.05,1.54-.26,6.63-.71,7.92-.43,1.2-3.73,7.36-5.04,9.78,2.32-1.2,8.06-4.3,9.27-6.27,1.82-2.97,1.85-4.09,1.71-4.5a.464.464,0,0,0-.13-.2.445.445,0,0,0-.21-.12c-.7-.25-1-1.29-.92-3.19.04-.75.12-1.5.23-2.25l-4.21-1.16Z"
                fill="#510394" />
            <path id="Path_29846" data-name="Path 29846"
                d="M211.71,112.07s-28.75-7.41-33.12-4.07-5.34,15.64-4.86,22.68-.73,30.15-1.18,31.81,7.37,3.32,7.37,3.32,5-21.58,6.69-26.33,1.15-15.87,1.15-15.87,16.68,8.8,25.88,8.41c11.31-.49,17.82-5.68,17.3-13.12s-19.23-6.83-19.23-6.83"
                fill="#3a3e3f" />
            <path id="Path_29847" data-name="Path 29847"
                d="M200.41,87.92s-2.44,3.97-3.97,4.38-13.2-5.13-14.18-6.5-1.97-5.61-3.2-6.05-8.01-3.43-8.01-3.43l4.08,3.57s-1.44.96-1.47,1.46.27,5.01,1.64,5.49,5.5,1,7.42,2.63,11.76,10.99,14.83,10.4,7.97-8.25,7.97-8.25l-5.1-3.7Z"
                fill="#fff" />
            <path id="Path_29848" data-name="Path 29848"
                d="M197.25,100.24c-2.66,0-8.33-4.75-13.58-9.46-.51-.46-.92-.83-1.18-1.05-1.33-1.13-3.82-1.71-5.64-2.14a17.139,17.139,0,0,1-1.67-.44c-1.75-.62-1.87-5.79-1.87-5.83.03-.48.73-1.08,1.26-1.47l-3.75-3.29a.4.4,0,0,1-.12-.21.315.315,0,0,1,.05-.23.3.3,0,0,1,.19-.14.335.335,0,0,1,.24.02c.07.03,6.78,2.99,7.99,3.42.9.32,1.55,1.97,2.24,3.72a13.885,13.885,0,0,0,1.12,2.45c.4.57,3.3,2.2,6.74,3.81,3.98,1.86,6.57,2.69,7.07,2.56,1.15-.3,3.11-3.15,3.77-4.22a.241.241,0,0,1,.1-.1.31.31,0,0,1,.13-.06h.14a.31.31,0,0,1,.13.06l5.1,3.69a.317.317,0,0,1,.13.21.32.32,0,0,1-.05.25c-.2.32-5.01,7.79-8.19,8.41a2.187,2.187,0,0,1-.36.03m-24.28-22.7,2.41,2.11a.653.653,0,0,1,.09.13.4.4,0,0,1,.03.15.3.3,0,0,1-.05.15.29.29,0,0,1-.11.11,4.209,4.209,0,0,0-1.32,1.2c-.05.78.4,4.78,1.41,5.14.35.13.93.26,1.6.42,1.89.44,4.47,1.04,5.92,2.28.26.22.67.59,1.19,1.06,2.97,2.67,10.86,9.75,13.35,9.26,1.17-.23,2.88-1.69,4.93-4.22,1.23-1.52,2.24-3.01,2.64-3.61l-4.54-3.29c-.64,1-2.57,3.84-3.98,4.22-1.75.46-13.53-5.22-14.54-6.63a13.626,13.626,0,0,1-1.2-2.6c-.55-1.39-1.23-3.11-1.83-3.33-.81-.29-3.89-1.63-6-2.55"
                fill="#510394" />
            <path id="Path_29849" data-name="Path 29849"
                d="M212.77,68.02c-2.09,1.26-6.63,4.87-6.27,7.49s-3.02,7.86-3,10.59,5.78,4.17,5.54,8.7.92,17.65.02,20.17,6.87,10.03,14.49,8.99,12.23-7.1,10.98-12.97-5.45-36.62-10.25-40.51-11.5-2.46-11.5-2.46"
                fill="#00b2ca" />
            <path id="Path_29850" data-name="Path 29850"
                d="M213.05,62.11s.07,5.18-.29,5.91,5.9.86,6.71-1.43-4.23-6.37-4.23-6.37l-2.2,1.89Z"
                fill="#fff" />
            <path id="Path_29851" data-name="Path 29851"
                d="M214.56,68.83a3.065,3.065,0,0,1-2.06-.47.5.5,0,0,1-.09-.24.434.434,0,0,1,.05-.25,32.6,32.6,0,0,0,.25-5.76.342.342,0,0,1,.12-.27l2.2-1.89a.342.342,0,0,1,.44,0,23.876,23.876,0,0,1,2.46,2.36c1.63,1.83,2.26,3.31,1.88,4.38-.49,1.37-2.46,1.85-3.59,2.01a11.449,11.449,0,0,1-1.65.12m-1.43-.84a8.676,8.676,0,0,0,4.05-.18c.76-.21,1.71-.62,1.97-1.34.57-1.6-2.44-4.57-3.9-5.8l-1.86,1.6a36.414,36.414,0,0,1-.26,5.72"
                fill="#510394" />
            <path id="Path_29852" data-name="Path 29852"
                d="M207.45,54.4s-.53,8.29,3.11,9.5,5.88-2.74,6.06-3.25-1.06-6.61-9.17-6.25"
                fill="#fff" />
            <path id="Path_29853" data-name="Path 29853"
                d="M211.93,64.47a4.584,4.584,0,0,1-1.47-.25c-3.85-1.28-3.37-9.5-3.34-9.85a.321.321,0,0,1,.1-.22.372.372,0,0,1,.22-.1c4.67-.21,7.07,1.67,8.27,3.29a5.344,5.344,0,0,1,1.24,3.42,7.249,7.249,0,0,1-1.83,2.42,4.79,4.79,0,0,1-3.19,1.29m-4.15-9.74a23.481,23.481,0,0,0,.2,3.93c.28,1.93.97,4.35,2.69,4.92,3.57,1.19,5.61-3,5.63-3.04a5.78,5.78,0,0,0-1.51-3.23c-1.09-1.24-3.18-2.66-7.01-2.57"
                fill="#510394" />
            <path id="Path_29854" data-name="Path 29854"
                d="M204.47,47.96c-3.05,4.78,3.34,8.62,6.03,9.13s4.9,7.55,4.81,9.65-.24,5.65,5.57,6.69,13.68-8.46,9.29-10.42c-5.97-2.67-7.04-15.19-12.03-17.92-6.33-3.46-10.69-1.81-13.68,2.87"
                fill="#510394" />
            <path id="Path_29855" data-name="Path 29855"
                d="M207.69,72.42s-9.09,12.56-9.96,14.5,5.64,6.78,7.71,7.88,7.53-8.95,8.35-11-1.26-10.49-6.11-11.38"
                fill="#00b2ca" />
            <path id="Path_29856" data-name="Path 29856"
                d="M208.61,92.91a.329.329,0,0,1-.19-.06.471.471,0,0,1-.13-.15.319.319,0,0,1-.03-.19.326.326,0,0,1,.08-.18c1.18-1.33,5.11-8.63,5.15-8.7a.426.426,0,0,1,.2-.15.366.366,0,0,1,.25.03.375.375,0,0,1,.16.19.359.359,0,0,1-.01.25c-.16.3-4.01,7.44-5.24,8.83a.273.273,0,0,1-.12.09.319.319,0,0,1-.14.03"
                fill="#510394" />
        </g>
        <g id="person_2" data-name="person 2">
            <path id="Path_29857" data-name="Path 29857"
                d="M138.87,101.71l-11.21-2.37a3.64,3.64,0,0,1-2.27-1.55,3.572,3.572,0,0,1-.5-2.7l3.56-16.85A3.64,3.64,0,0,1,130,75.97a3.572,3.572,0,0,1,2.7-.5l11.21,2.37a3.64,3.64,0,0,1,2.27,1.55,3.572,3.572,0,0,1,.5,2.7l-3.56,16.85a3.6,3.6,0,0,1-.55,1.29,3.729,3.729,0,0,1-1,.98,3.661,3.661,0,0,1-1.3.52,3.475,3.475,0,0,1-1.4-.02Z"
                fill="#fff" />
            <path id="Path_29858" data-name="Path 29858"
                d="M139.62,102.13a3.747,3.747,0,0,1-.82-.09l-11.2-2.37a4.011,4.011,0,0,1-1.41-.6,3.956,3.956,0,0,1-1.64-2.52,3.938,3.938,0,0,1,.02-1.53l3.56-16.85a3.96,3.96,0,0,1,1.7-2.48,3.908,3.908,0,0,1,2.96-.55l11.2,2.37a3.934,3.934,0,0,1,1.41.6,3.956,3.956,0,0,1,1.64,2.52,3.937,3.937,0,0,1-.02,1.53l-3.56,16.85a3.963,3.963,0,0,1-1.37,2.24,3.907,3.907,0,0,1-2.47.88Zm-7.65-26.39a3.245,3.245,0,0,0-2.04.73,3.212,3.212,0,0,0-1.13,1.85l-3.56,16.85a3.233,3.233,0,0,0,.46,2.44,3.275,3.275,0,0,0,2.05,1.41l11.2,2.37a3.238,3.238,0,0,0,2.45-.45,3.087,3.087,0,0,0,.91-.89,3.293,3.293,0,0,0,.5-1.17l3.56-16.85a3.2,3.2,0,0,0,.01-1.27,3.359,3.359,0,0,0-.47-1.18,3.087,3.087,0,0,0-.89-.91,3.324,3.324,0,0,0-1.16-.5l-11.2-2.37a3.078,3.078,0,0,0-.68-.07Z"
                fill="#510394" />
            <g id="Group_6087" data-name="Group 6087" opacity="0.59">
                <g id="Group_6086" data-name="Group 6086">
                    <path id="Path_29859" data-name="Path 29859"
                        d="M142.51,87.53,130.08,84.9a1.427,1.427,0,0,1-.49-.21,1.219,1.219,0,0,1-.37-.38,1.284,1.284,0,0,1-.2-.5,1.572,1.572,0,0,1,0-.53l.92-4.35a1.427,1.427,0,0,1,.21-.49,1.219,1.219,0,0,1,.38-.37,1.458,1.458,0,0,1,.5-.2,1.631,1.631,0,0,1,.54,0L144,80.5a1.427,1.427,0,0,1,.49.21,1.219,1.219,0,0,1,.37.38,1.284,1.284,0,0,1,.2.5,1.572,1.572,0,0,1,0,.53l-.92,4.35a1.427,1.427,0,0,1-.21.49,1.219,1.219,0,0,1-.38.37,1.284,1.284,0,0,1-.5.2A1.631,1.631,0,0,1,142.51,87.53Z"
                        fill="#f6eeff" />
                </g>
            </g>
            <g id="Group_6089" data-name="Group 6089" opacity="0.59">
                <g id="Group_6088" data-name="Group 6088">
                    <path id="Path_29860" data-name="Path 29860"
                        d="M140.55,95.91l-12.43-2.63a1.427,1.427,0,0,1-.49-.21,1.219,1.219,0,0,1-.37-.38,1.284,1.284,0,0,1-.2-.5,1.572,1.572,0,0,1,0-.53l.92-4.35a1.427,1.427,0,0,1,.21-.49,1.219,1.219,0,0,1,.38-.37,1.284,1.284,0,0,1,.5-.2,1.572,1.572,0,0,1,.53,0l12.43,2.63a1.427,1.427,0,0,1,.49.21,1.339,1.339,0,0,1,.37.38,1.284,1.284,0,0,1,.2.5,1.572,1.572,0,0,1,0,.53l-.92,4.35a1.427,1.427,0,0,1-.21.49,1.219,1.219,0,0,1-.38.37,1.284,1.284,0,0,1-.5.2,1.631,1.631,0,0,1-.54,0Z"
                        fill="#f6eeff" />
                </g>
            </g>
            <path id="Path_29861" data-name="Path 29861"
                d="M135.08,98.1a1.032,1.032,0,0,1-.16.54,1.068,1.068,0,0,1-.43.36.954.954,0,0,1-1.05-.2.931.931,0,0,1-.26-.5.966.966,0,0,1,.42-.99.976.976,0,0,1,1.22.12.97.97,0,0,1,.28.68Z"
                fill="#510394" />
            <path id="Path_29862" data-name="Path 29862"
                d="M108.19,89.39s10.99-.77,13.56-2.55,1.95-2.6,4.14-2.6a30.418,30.418,0,0,1,6.34,1.25l-5.59.57s.25,5.21-1.57,5.65-2.01-.19-3.7.44-10.17,5.65-16.13,5.78,2.95-8.54,2.95-8.54"
                fill="#fff" />
            <path id="Path_29863" data-name="Path 29863"
                d="M105.12,98.27c-1.15,0-1.88-.34-2.16-1-.95-2.26,4.38-7.53,4.99-8.13a.346.346,0,0,1,.21-.1c.11,0,10.92-.79,13.39-2.49a10.48,10.48,0,0,0,1.85-1.6,2.8,2.8,0,0,1,1.1-.86,2.725,2.725,0,0,1,1.38-.2,30.6,30.6,0,0,1,6.44,1.27.331.331,0,0,1,.19.14.428.428,0,0,1,.06.22.3.3,0,0,1-.1.21.346.346,0,0,1-.21.1l-5.27.53c.03,1.25-.03,5.24-1.84,5.67a5.725,5.725,0,0,1-1.89.16,3.758,3.758,0,0,0-1.78.26c-.35.13-1.05.48-1.93.92-3.34,1.67-9.57,4.78-14.31,4.88h-.13m3.23-8.54c-2.18,2.13-5.32,5.92-4.75,7.29.17.4.72.6,1.64.58,4.59-.1,10.73-3.16,14.02-4.8.94-.47,1.61-.81,2-.95a4.356,4.356,0,0,1,2.05-.31,4.812,4.812,0,0,0,1.69-.15c1.12-.27,1.4-3.4,1.31-5.3a.407.407,0,0,1,.08-.24.348.348,0,0,1,.22-.12l3.76-.38a21.862,21.862,0,0,0-4.48-.76,2.1,2.1,0,0,0-1.11.14,2.146,2.146,0,0,0-.88.7,10.982,10.982,0,0,1-1.96,1.7c-2.5,1.73-12.31,2.51-13.6,2.6"
                fill="#510394" />
            <path id="Path_29864" data-name="Path 29864"
                d="M145.79,167.17c-.9,1.25-1.17,4.14.4,5.19s1.59.68,2.57,1.84,6.58,7.42,6.58,7.42l.9-1.44s-6.32-6.34-5.65-7.04,4.3.76,6.34,2.51,2.93,3.32,5.16,2.26,5.39-4.18,5.15-4.54c-.58-.9-6.26-1.08-6.83-1.65s-6.03-4.66-9.76-5.16-4.85.61-4.85.61"
                fill="#510394" />
            <path id="Path_29865" data-name="Path 29865"
                d="M120.2,131.9s16.78,16.95,21.66,24.35,4.41,10.86,4.41,10.86,2.2-.47,3.46.39,6.61,5.58,10.62,4.48a18.724,18.724,0,0,1-4.25-5.66c-2.2-4.09-7.55-14.47-10.93-19.98s-21.5-31.26-23.75-33.21-1.22,18.77-1.22,18.77Z"
                fill="#fff" />
            <path id="Path_29866" data-name="Path 29866"
                d="M159.07,172.49c-3.36,0-7.13-2.88-8.86-4.2-.29-.23-.53-.4-.68-.51a4.984,4.984,0,0,0-3.2-.34.856.856,0,0,1-.16,0,.285.285,0,0,1-.14-.08.381.381,0,0,1-.09-.13.44.44,0,0,1-.02-.16c0-.03.37-3.47-4.35-10.62-4.8-7.28-21.45-24.13-21.62-24.3a.321.321,0,0,1-.1-.22c0-.04-.22-4.57-.24-9.14-.02-9.44.86-9.87,1.24-10.06a.676.676,0,0,1,.42-.05.747.747,0,0,1,.37.2c2.22,1.93,20.33,27.61,23.82,33.29,2.62,4.27,6.47,11.55,9.02,16.37.76,1.45,1.43,2.7,1.92,3.62a18.429,18.429,0,0,0,4.16,5.56.327.327,0,0,1,.11.15.305.305,0,0,1,.01.19.38.38,0,0,1-.08.17.336.336,0,0,1-.16.1,5.238,5.238,0,0,1-1.36.18m-11.48-5.89a4.169,4.169,0,0,1,2.31.58c.17.12.41.3.71.53,1.76,1.35,5.75,4.39,8.97,4.03a21.9,21.9,0,0,1-3.81-5.3c-.5-.93-1.16-2.18-1.93-3.63-2.54-4.81-6.39-12.09-9-16.34-3.48-5.66-21.48-31.23-23.68-33.13-.02-.01-.03-.03-.05-.04-.72.51-1.14,7.48-.6,18.41,1.35,1.37,16.96,17.25,21.61,24.31,3.96,6.01,4.45,9.47,4.47,10.64a8.238,8.238,0,0,1,.99-.07"
                fill="#510394" />
            <path id="Path_29867" data-name="Path 29867"
                d="M122.15,169.2c-1.44.55-3.23,2.84-2.48,4.57s.97,1.44,1.15,2.94,1.49,9.8,1.49,9.8l1.54-.72s-1.86-8.75-.92-8.98,3.2,2.97,3.95,5.55.65,4.38,3.1,4.7,6.79-.58,6.79-1.01c0-1.07-4.67-4.31-4.83-5.1s-2.53-7.19-5.39-9.64-4.41-2.12-4.41-2.12"
                fill="#510394" />
            <path id="Path_29868" data-name="Path 29868"
                d="M109.25,106.77s6.28-4.57,9.73-3.36,6.28,18.3,6.97,32.58,1.92,31.38,2.65,33.34,2.54,10.36,2.54,10.36-3.13-6-5.31-7.31-4.43-1.45-4.43-2.62-3.58-23.3-4.4-28.48-3.4-16.4-4.27-16.41a11.873,11.873,0,0,0-3.18,1.24l-.31-19.34Z"
                fill="#fff" />
            <path id="Path_29869" data-name="Path 29869"
                d="M131.15,180.03a.407.407,0,0,1-.18-.05.3.3,0,0,1-.12-.13c-.03-.06-3.11-5.93-5.18-7.17a14.976,14.976,0,0,0-2.37-1.1c-1.24-.48-2.23-.87-2.23-1.82s-2.5-16.59-3.71-24.12c-.3-1.85-.54-3.36-.69-4.3-.87-5.52-3.22-15.23-4.01-16.11a11.584,11.584,0,0,0-2.94,1.2.329.329,0,0,1-.17.04.337.337,0,0,1-.17-.05.345.345,0,0,1-.12-.12.329.329,0,0,1-.04-.17l-.31-19.34a.293.293,0,0,1,.04-.16.318.318,0,0,1,.11-.12c.26-.19,6.47-4.66,10.05-3.41,1.74.61,3.34,4.53,4.74,11.64a152.991,152.991,0,0,1,2.45,21.24c.68,14.21,1.93,31.35,2.63,33.24.73,1.96,2.48,10.06,2.56,10.41a.379.379,0,0,1,0,.15.267.267,0,0,1-.07.14.273.273,0,0,1-.12.09.4.4,0,0,1-.15.03m-18.42-55.51h0c.35,0,.87,0,2.49,6.52.85,3.41,1.7,7.5,2.12,10.17.15.95.39,2.46.69,4.3,1.8,11.25,3.72,23.33,3.72,24.23,0,.46.65.73,1.79,1.18a15.08,15.08,0,0,1,2.48,1.15c1.42.85,3.17,3.51,4.3,5.41-.59-2.63-1.55-6.77-2.03-8.05-.73-1.97-1.97-18.88-2.67-33.44a153.256,153.256,0,0,0-2.44-21.14c-1.3-6.57-2.86-10.63-4.3-11.13-2.96-1.04-8.33,2.56-9.28,3.22l.3,18.61a8.946,8.946,0,0,1,2.84-1.02"
                fill="#510394" />
            <path id="Path_29870" data-name="Path 29870"
                d="M98.84,68.33s3.13.47,3.53,1.51c2.44,6.37-7.76,36.95-5.69,38.92s14.49-5.9,16.25-5.9,1.66,4.97,2.38,7.25-.21,7.76-2.69,12.21,2.28,3.93-2.38,7.35-13.25,9.73-28.36,8.8S64.8,128.22,65.32,120.04s13.35-55.48,20.6-53.31l12.92,1.59Z"
                fill="#00b2ca" />
            <path id="Path_29871" data-name="Path 29871"
                d="M107.72,91.29s-5.08,20.67-5.25,24.08-3.15,21.19-3.15,21.19,6.71,1.53,7.4,1.81,3.22,4.6,3.22,4.6h-.69l-.56,1.41-.75-1.38-.53,1.38-1.69-2.41s-5.88,1.47-8.35,1.44-4.07-.56-3.94-3.03,1.13-28.88,1.72-33.46,4.81-16.45,4.81-16.45Z"
                fill="#fff" />
            <path id="Path_29872" data-name="Path 29872"
                d="M108.69,144.73a.337.337,0,0,1-.17-.05.3.3,0,0,1-.12-.13l-.4-.73-.27.69a.327.327,0,0,1-.11.15.363.363,0,0,1-.17.07.381.381,0,0,1-.18-.03.333.333,0,0,1-.14-.12l-1.55-2.22a47.587,47.587,0,0,1-8.21,1.39c-1.31-.02-2.76-.15-3.59-1.04a3.055,3.055,0,0,1-.69-2.35c.02-.47.08-1.82.16-3.69.33-7.8,1.09-26.07,1.57-29.79.58-4.57,4.66-16.03,4.83-16.52a.391.391,0,0,1,.14-.17.329.329,0,0,1,.22-.05l7.76.82a.815.815,0,0,1,.14.04.346.346,0,0,1,.11.1.379.379,0,0,1,.06.13v.15c-.05.21-5.07,20.67-5.24,24.02-.16,3.18-2.69,18.43-3.1,20.91,1.44.33,6.51,1.5,7.14,1.76.74.3,2.78,3.7,3.39,4.74a.314.314,0,0,1,0,.34.325.325,0,0,1-.13.13.268.268,0,0,1-.17.04h-.46l-.48,1.19a.349.349,0,0,1-.12.15.3.3,0,0,1-.18.06h-.02m-3-3.09a.293.293,0,0,1,.16.04.318.318,0,0,1,.12.11l1.32,1.88.3-.78a.289.289,0,0,1,.12-.15.4.4,0,0,1,.18-.07.406.406,0,0,1,.19.04.376.376,0,0,1,.14.14l.4.74.29-.73a.353.353,0,0,1,.32-.22h.09a21.083,21.083,0,0,0-2.75-3.94c-.54-.22-5.48-1.37-7.34-1.8a.345.345,0,0,1-.21-.14.312.312,0,0,1-.05-.25c.03-.18,2.97-17.8,3.15-21.15.16-3.19,4.46-20.85,5.17-23.76l-7.1-.75c-.61,1.75-4.18,12-4.71,16.12-.47,3.7-1.24,21.94-1.56,29.74-.08,1.87-.13,3.23-.16,3.7a2.316,2.316,0,0,0,.06.98,2.466,2.466,0,0,0,.44.87c.51.55,1.47.8,3.1.82,2.4.04,8.2-1.41,8.26-1.43.03,0,.06-.01.08-.01"
                fill="#510394" />
            <path id="Path_29873" data-name="Path 29873"
                d="M95.21,59.44s-2.27,3.98-2.2,5.82,6.81,2.91,7.45,3.9-3.41,2.34-7.45,1.49a20.236,20.236,0,0,1-6.59-2.23c-1.14-.64-.42-11.91,2.84-12.76s5.95,3.78,5.95,3.78"
                fill="#fff" />
            <path id="Path_29874" data-name="Path 29874"
                d="M95.67,71.27a13.271,13.271,0,0,1-2.74-.28,20.945,20.945,0,0,1-6.69-2.27c-.93-.53-.71-4.27-.47-6.17.26-1.97,1.1-6.62,3.39-7.22,3.48-.91,6.22,3.74,6.33,3.94a.314.314,0,0,1,0,.34c-.02.04-2.22,3.91-2.16,5.64.03.88,2.65,1.76,4.39,2.34s2.71.92,3.01,1.4a.75.75,0,0,1,.12.44.772.772,0,0,1-.15.43c-.55.8-2.64,1.42-5.04,1.42M90.07,55.9a2.9,2.9,0,0,0-.72.09c-.99.26-1.89,1.84-2.47,4.34-.84,3.59-.7,7.44-.28,7.8a19.847,19.847,0,0,0,6.48,2.19c3.32.7,6.58-.14,7.07-.86.05-.07.03-.08.02-.11a9.519,9.519,0,0,0-2.65-1.12c-2.36-.79-4.8-1.61-4.86-2.96-.07-1.71,1.7-5.01,2.15-5.83-.46-.72-2.41-3.55-4.75-3.55"
                fill="#510394" />
            <path id="Path_29875" data-name="Path 29875"
                d="M100.19,46.83l2.53,8.09h-1.88s.72,4.98-.43,6.07-3.76,1.26-6.94-1.34c-2.45-2-2.31-5.13-2.09-7.44S95.5,46.11,100.19,46.83Z"
                fill="#fff" />
            <path id="Path_29876" data-name="Path 29876"
                d="M98.27,62.07a8.21,8.21,0,0,1-5.02-2.17c-2.73-2.24-2.4-5.81-2.22-7.73a6.277,6.277,0,0,1,2.59-3.86,8.651,8.651,0,0,1,6.62-1.83.3.3,0,0,1,.17.08.336.336,0,0,1,.1.16l2.53,8.09a.292.292,0,0,1,.01.16.317.317,0,0,1-.06.15.294.294,0,0,1-.12.1.419.419,0,0,1-.15.04h-1.49c.16,1.28.5,4.95-.59,5.97a3.372,3.372,0,0,1-2.37.84m.72-15a8.122,8.122,0,0,0-4.95,1.78,5.666,5.666,0,0,0-2.32,3.38c-.25,2.67-.18,5.38,1.97,7.14,2.04,1.67,4.94,2.8,6.49,1.35.75-.7.6-3.91.33-5.77a.757.757,0,0,1,.01-.15.329.329,0,0,1,.07-.13.273.273,0,0,1,.12-.09.319.319,0,0,1,.14-.03h1.41l-2.32-7.44a7.26,7.26,0,0,0-.93-.06"
                fill="#510394" />
            <path id="Path_29877" data-name="Path 29877"
                d="M100.69,44.12c-5.01-3.6-17.07-3.22-17.7,7.51-.4,6.88,2.59,8.92,2.59,10.14S79.41,65.94,79.86,73s2.81,15.55-.02,20.38-3.56,10.26-.51,10.55c10.55.98,11.3-37.45,9.24-41.56-1.08-2.16,4.25-.3,10.15-9.47,3.14-4.88,3.25-7.84,1.97-8.76"
                fill="#510394" />
            <path id="Path_29878" data-name="Path 29878"
                d="M101.77,69.23s6.95,2.39,7.81,8.67.61,14.15-.67,14.45-9.45.98-11.1-.49.6-20.03,3.96-22.63"
                fill="#00b2ca" />
            <path id="Path_29879" data-name="Path 29879"
                d="M105.45,93.01a43.261,43.261,0,0,1-7.7-.8c-.62-.11-1.14-.91-.76-5.89.2-2.66.58-5.33.58-5.36a.284.284,0,0,1,.04-.13.219.219,0,0,1,.09-.1.338.338,0,0,1,.12-.06.329.329,0,0,1,.14,0,.211.211,0,0,1,.13.05.43.43,0,0,1,.1.09.31.31,0,0,1,.06.13.655.655,0,0,1,0,.14c-.76,5.33-.93,10.13-.36,10.48,6.3,1.16,9.44.69,9.48.69a.35.35,0,0,1,.26.06.368.368,0,0,1,.14.22.317.317,0,0,1-.06.25.368.368,0,0,1-.22.14,15.047,15.047,0,0,1-2.01.11"
                fill="#510394" />
            <path id="Path_29880" data-name="Path 29880"
                d="M109.25,143.32a.312.312,0,0,1-.14-.03.47.47,0,0,1-.12-.09l-2.54-2.91-4.84-1.01a.781.781,0,0,1-.12-.05.293.293,0,0,1-.09-.1.347.347,0,0,1,.36-.53l4.95,1.03a.311.311,0,0,1,.19.11l2.62,2.99a.63.63,0,0,1,.08.18.4.4,0,0,1-.03.19.374.374,0,0,1-.13.15.32.32,0,0,1-.19.05Z"
                fill="#510394" />
            <path id="Path_29881" data-name="Path 29881"
                d="M107.94,143.35a.7.7,0,0,1-.14-.03.444.444,0,0,1-.11-.08l-1.88-2.07-3.98-.82a.445.445,0,0,1-.13-.05.318.318,0,0,1-.1-.1.31.31,0,0,1-.06-.13v-.14a.223.223,0,0,1,.06-.13.474.474,0,0,1,.1-.1.5.5,0,0,1,.13-.05h.14l4.09.84a.325.325,0,0,1,.18.1l1.96,2.16a.63.63,0,0,1,.08.18.4.4,0,0,1-.03.19.374.374,0,0,1-.13.15.329.329,0,0,1-.19.06"
                fill="#510394" />
        </g>
    </g>
</svg>
